<?xml version="1.0" encoding="UTF-8"?>
<svg width="178.83" height="269.35" version="1.1" viewBox="0 0 47.315 71.266" xmlns="http://www.w3.org/2000/svg" xmlns:cc="http://creativecommons.org/ns#" xmlns:dc="http://purl.org/dc/elements/1.1/" xmlns:rdf="http://www.w3.org/1999/02/22-rdf-syntax-ns#">
 <metadata>
  <rdf:RDF>
   <cc:Work rdf:about="">
    <dc:format>image/svg+xml</dc:format>
    <dc:type rdf:resource="http://purl.org/dc/dcmitype/StillImage"/>
    <dc:title/>
   </cc:Work>
  </rdf:RDF>
 </metadata>
 <g transform="translate(-3.1744 -1.8556)">
  <path d="m34.353 2.1209c-0.03972 0.0029-0.0687 0.02504-0.0925 0.06305-0.31671 0.50575-0.02943 1.8028 0.87075 3.9295 0.3451 0.81528 0.64625 1.7594 0.68575 2.1503 0.03881 0.38325 0.09324 0.77215 0.12144 0.86454 0.02809 0.09239 0.12089 0.16795 0.20619 0.16795 0.1091 0 0.13573-0.2686 0.09043-0.90692-0.0491-0.69188-0.22544-1.2946-0.74362-2.5394-0.9284-2.2302-1.1952-3.3547-0.67283-2.836 0.44835 0.44524 1.4957 1.0614 2.9078 1.711 0.84102 0.38687 1.811 0.90656 2.1554 1.155 0.42564 0.30701 0.65637 0.40241 0.72037 0.29766 0.19874-0.325-0.6298-0.84672-3.56-2.2412-0.70242-0.33428-1.4437-0.81858-1.9058-1.2454-0.4501-0.41574-0.66425-0.57872-0.78341-0.56999zm-10.355 0.72967c-1.6039 0.01331-3.923 0.70199-5.4591 1.6211-1.4048 0.84052-3.4163 2.8625-3.4163 3.4339 0 0.34468 0.22543 0.17829 0.83612-0.6165 1.2999-1.6918 3.4908-3.1058 5.6146-3.6241 1.2938-0.31576 2.0606-0.43035 2.0557-0.30696-0.0019 0.05079-0.30055 0.29584-0.66352 0.54467-0.76563 0.52487-1.5937 1.4071-1.5937 1.6981 0 0.32731 0.1765 0.23674 0.80357-0.41289 0.32604-0.33777 0.9967-0.91794 1.4904-1.2893 1.0612-0.79843 1.1425-1.0547 0.33228-1.048zm19.946 1.4785c-0.12891 0.02699-0.33993 0.23736-0.632 0.632-0.71974 0.97246-2.7648 2.988-3.7595 3.7047-1.3625 0.98173-2.3944 1.421-3.5755 1.5219l-1.0098 0.08578-0.37517-0.65629c-1.4271-2.4961-2.8053-4.1847-3.8587-4.7279-1.3023-0.67148-3.3186-0.64995-5.5464 0.05994-2.0973 0.66831-3.1761 1.379-5.6389 3.714-1.7321 1.6421-2.356 1.9756-3.1843 1.7027-0.63121-0.20796-1.3357-0.693-2.3709-1.6319-1.5879-1.4402-2.4909-2.0181-3.4303-2.1962-0.49172-0.09323-0.49247-0.09287-0.49247 0.37672 0 0.6955 0.59852 2.6588 1.1451 3.7558 0.85419 1.7143 2.1383 3.2214 3.1817 3.7341 0.29564 0.14527 1.3489 0.47056 2.3404 0.72295 2.6202 0.66695 3.2633 1.0733 3.8334 2.4221 0.17527 0.41468 0.32574 0.61303 0.40462 0.5333 0.18522-0.1872-0.07293-0.99948-0.51211-1.6118-0.53051-0.73965-1.4649-1.1992-3.5026-1.7229-0.97435-0.25042-1.9998-0.55435-2.2789-0.67489-1.0964-0.47341-2.4243-2.1161-3.3393-4.131-0.42423-0.93415-0.97594-2.8716-0.85318-2.9957 0.03171-0.03204 0.35418 0.08111 0.71675 0.25115 0.60203 0.28233 1.0559 0.63008 3.4411 2.6386 0.43304 0.36464 1.0758 0.76 1.4289 0.8785 1.1769 0.39507 1.8791 0.06812 3.8478-1.7942 2.4191-2.2884 3.2029-2.8229 5.0958-3.4737 2.1967-0.75527 3.9851-0.8623 5.2286-0.31264 1.0812 0.47787 2.9182 2.6251 3.8695 4.5227 0.36336 0.7248 0.74142 0.9834 1.4387 0.9834 2.014 0 3.8623-1.0316 6.4074-3.576 1.3614-1.361 1.5019-1.468 1.4268-1.0837-0.22366 1.1446-1.5958 3.4953-2.9957 5.1315-1.5192 1.7757-2.3655 2.3879-5.3935 3.9026-2.7357 1.3685-4.1884 2.3488-4.1884 2.8257 0 0.28176 0.0545 0.25402 0.96325-0.48834 0.52679-0.43034 1.7337-1.1252 3.2918-1.8945 2.8588-1.4115 3.682-1.9698 5.0689-3.4375 1.8323-1.939 3.2651-4.3389 3.7636-6.3045 0.24532-0.96738 0.25826-1.4315 0.04341-1.3865zm-17.976 4.7976c-0.14491-0.0011-0.20863 0.05787-0.31678 0.17518-0.124 0.13452-0.46142 0.26264-0.75499 0.28681l-0.53072 0.04341-0.11317 0.72192c-0.25183 1.6089 0.28823 2.7057 1.3317 2.7047 1.0752-0.0011 1.9048-1.0278 1.9048-2.357v-0.66042l0.3421 0.34572c0.76391 0.77205 0.61934 2.1413-0.34261 3.2458-1.0067 1.1559-2.3687 1.4871-3.1326 0.76171-0.30348-0.28815-0.66461-1.1859-0.74879-1.8624-0.06552-0.52628-0.3731-0.50887-0.3731 0.02119 0 1.02 0.65418 2.2088 1.3963 2.5373 0.14626 0.06475 0.57565 0.09228 0.95395 0.0615 1.7952-0.14606 3.4882-2.3101 3.1151-3.9822-0.23421-1.0495-0.72515-1.5232-1.928-1.8604-0.43207-0.12108-0.65814-0.18192-0.80305-0.18294zm0.0987 0.49454c0.12003-0.0067 0.26522 0.02567 0.48938 0.09354 0.52918 0.16003 0.53382 0.16834 0.53382 0.81649 0 0.81414-0.25542 1.454-0.73277 1.8335-0.45175 0.35912-1.0457 0.37487-1.3803 0.03669-0.30901-0.31235-0.46711-1.1755-0.34675-1.8955 0.0788-0.47138 0.1339-0.53795 0.44752-0.53795 0.19669 0 0.48981-0.09302 0.65112-0.20722 0.12312-0.08715 0.21794-0.13287 0.33796-0.13953zm15.823 1.7673c-0.13468-0.01035-0.19403 0.17152-0.04186 0.45889 0.23787 0.44919 0.18726 1.3286-0.12506 2.1714-0.26947 0.7272-0.64207 1.3867-2.3172 4.1016-0.4179 0.67728-0.87792 1.5717-1.0227 1.988-0.77894 2.2398-1.1166 7.0739-0.6103 8.7406 0.18616 0.61282 0.38846 0.94223 0.84284 1.3715 0.32881 0.31064 0.56933 0.61286 0.53433 0.6718-0.03498 0.05892-0.10678 0.86308-0.15968 1.787-0.05287 0.9239-0.11798 1.7946-0.14418 1.9353-0.02633 0.14066-0.08202 1.8644-0.12402 3.8303-0.10013 4.6861-0.24863 7.0325-0.75448 11.906-0.35127 3.3845-0.41985 4.5919-0.42685 7.5251-0.0079 3.3263 0.07143 4.3972 0.46767 6.3164 0.07629 0.36956 0.16392 0.75257 0.19482 0.85111 0.05057 0.16118 0.32741 0.17624 0.35191 0.01913 0.0055-0.03511-0.08707-0.6081-0.20567-1.2733-0.67342-3.777-0.65266-6.5092 0.10904-14.312 0.18397-1.8847 0.36269-3.7289 0.39739-4.0985 0.09601-1.023 0.18834-3.4167 0.27234-7.0554 0.04181-1.8108 0.09999-3.5341 0.12919-3.8297 0.05484-0.55525 0.10121-1.2229 0.33228-4.7708 0.31819-4.8855 0.73-7.5466 1.5828-10.227 0.44813-1.4086 0.48786-1.6472 0.25993-1.5704-0.40291 0.13573-1.3051 3.4341-1.7017 6.2208-0.14728 1.0348-0.33664 2.758-0.42064 3.8297-0.08402 1.0717-0.17829 1.9769-0.20929 2.0112-0.14978 0.16542-0.53819-0.29553-0.79892-0.94774-0.58795-1.4707-0.52638-4.5115 0.15296-7.5499 0.36568-1.6356 0.51011-1.9487 1.8753-4.0649 1.4435-2.2375 1.9673-3.4068 2.0304-4.5336 0.03886-0.69376-0.0028-0.9903-0.17622-1.2578-0.10579-0.16319-0.21375-0.23822-0.29456-0.24443zm-27.991 3.837c-0.52761 0.04275-1.1372 1.1526-1.3849 2.5657-0.31335 1.7874-0.05309 4.4945 0.88418 9.1974 0.29023 1.4563 0.52762 2.7242 0.52762 2.8174 0 0.09871-0.20808 0.18653-0.49868 0.21084-0.68824 0.05757-0.62628 0.29511 0.09973 0.38241 0.3291 0.03958 0.64324 0.05129 0.69815 0.02585 0.19123-0.08874 0.09615-0.87731-0.42323-3.5119-0.7485-3.7967-0.95949-5.3631-0.97875-7.2693-0.02021-2.0058 0.2006-2.9131 0.92088-3.7837 0.39312-0.47519 0.44133-0.59199 0.25941-0.62838-0.03431-0.0069-0.06921-9e-3 -0.10439-0.0062zm29.613 2.5368c-0.3058 0-1.2524 2.0422-1.6159 3.4856-0.60521 2.4032-0.56789 4.4877 0.16123 8.9452 0.18136 1.1087 0.36319 2.2229 0.40359 2.4758 0.0822 0.51372 0.08325 5.0329 0.0016 5.4529-0.1599 0.82206-0.37484 5.7729-0.31264 7.2001 0.08061 1.852 0.23259 2.534 1.3539 6.0761 2.1176 6.6892 2.276 9.0577 0.75551 11.291-0.51267 0.7531-1.2348 1.3362-1.5183 1.2263-0.31312-0.12144-0.59564-0.97201-0.76171-2.295-0.50184-3.9978-0.63055-4.589-1.0273-4.7196-0.47527-0.15645-0.8847 2.3377-0.7891 4.8054 0.10132 2.6138 0.62117 4.6793 1.773 7.0445 0.4791 0.98381 0.45245 1.1463-0.18707 1.1508-0.28308 0.0019-0.38581 0.13804-0.22634 0.29921 0.08769 0.08674 1.371 0.03568 1.464-0.0584 0.03552-0.03589-0.20428-0.60803-0.53278-1.2712-1.2731-2.5702-1.9381-5.2891-1.9301-7.8884 0.0041-1.3051 0.23579-3.0584 0.42995-3.2546 0.11264-0.11384 0.22043 0.51849 0.49661 2.9073 0.36662 3.1711 0.7751 4.0229 1.7353 3.621 0.55323-0.23159 1.557-1.3724 1.9224-2.1849 0.98919-2.1994 0.6949-4.7936-1.2387-10.915-0.44362-1.4043-0.90572-2.916-1.0268-3.3595-0.30256-1.1078-0.39712-4.2721-0.20154-6.734 0.45276-5.6992 0.41535-7.3628-0.25528-11.47-0.84146-5.1528-0.64585-7.7286 0.80822-10.653 0.58679-1.1798 0.58635-1.1793 0.31833-1.1793zm-33.418 0.13436c-0.27855 0-0.62234 0.08888-0.76429 0.1974-0.28255 0.21596-0.18585 0.25645 0.50643 0.21032 0.22375-0.01492 0.36872 0.04449 0.37362 0.15348 0.0046 0.09796 0.03218 0.42007 0.06098 0.71572 0.02882 0.29565 0.11687 1.5051 0.19585 2.6877 0.31719 4.7488 1.0903 11.098 1.8071 14.841 0.62606 3.2692 1.0149 9.4572 0.97152 15.463-0.05407 7.4911-0.79036 11.288-2.1885 11.288h-0.35398l0.08733-0.9741c0.18663-2.0824 0.52237-3.7459 1.1669-5.779 0.22852-0.72088 0.38004-1.3465 0.33642-1.3906-0.18377-0.18573-0.37715 0.16403-0.76378 1.3839-0.83026 2.6195-1.2025 5.0886-1.233 8.1793-0.01651 1.6731-0.0186 1.6862-0.31213 1.6118-0.16276-0.0413-0.44421-0.01788-0.62528 0.05168-0.40972 0.15744-0.39369 0.21573-0.75189-2.6861-0.51998-4.4366-0.30917-9.2175 1.2547-13.088 0.69741-1.7027 0.99192-2.8465 1.126-4.376 0.17744-2.0236 0.06013-7.9132-0.19792-9.9374-0.22548-1.7687-0.75879-4.1303-0.98392-4.3579-0.28708-0.29033-0.28843 0.09204-0.0047 1.2165 0.48953 1.9397 0.66501 3.3213 0.8077 6.3598 0.17553 3.6636 0.20234 7.512-1.0837 10.808-0.78802 2.0029-1.2301 3.6701-1.4459 5.4524-0.19044 1.5744-0.19517 5.144-0.0088 6.8549 0.1844 1.6927 0.54564 4.2064 0.6227 4.3326h-5.29e-4c0.09525 0.15591 0.29102 0.12064 0.64957-0.11679 0.25827-0.17098 0.3693-0.18315 0.51987-0.05684 0.10532 0.08833 0.32958 0.14094 0.49816 0.11679 0.28212-0.04042 0.30772-0.11365 0.32246-0.91777 0.04463-2.4391 0.0044-2.2421 0.45837-2.2552 0.48746-0.01402 0.71817-0.19055 1.1472-0.87747 0.82382-1.3189 1.2255-4.3421 1.3291-10.005 0.12189-6.6614-0.23361-12.339-1.0707-17.099-0.77759-4.421-1.5029-10.578-1.757-14.916-0.0498-0.84998-0.10508-1.6968-0.12299-1.8815-0.01783-0.18478-0.04001-0.53235-0.04961-0.77256-0.01606-0.41331-0.04421-0.43718-0.52348-0.43718zm15.599 0.68575c-5.3519-7.94e-4 -10.703 0.03515-10.817 0.10749-0.18808 0.11908-0.11751 0.77018 0.13642 1.2599 0.19581 0.37758 0.39351 0.12436 0.29921-0.38344l-0.08526-0.45992 6.9624-0.0083c3.8293-0.0045 7.6805-0.0091 8.5581-0.01035 0.87758-0.0013 2.4468 0.0027 3.4871 0.0083l1.8914 0.01034-0.07958 0.40308c-0.12751 0.64439 0.27717 0.51355 0.47491-0.15348 0.13302-0.44972 0.13201-0.57686-0.0067-0.66352-0.11587-0.07236-5.4686-0.10935-10.821-0.11007zm19.239 0.22014c-0.08357 4e-3 -0.17125 0.01357-0.26303 0.02894-0.63157 0.10566-0.53154 0.33518 0.16692 0.38292 0.43292 0.02958 0.65371 0.12126 0.79995 0.33228 0.28132 0.40582 0.25474 1.4751-0.07338 2.9543-0.20559 0.927-0.26444 1.5883-0.23254 2.6097 0.05126 1.6418 0.07533 1.6836 1.8242 3.1672 1.1081 0.94011 1.4759 1.1818 1.4759 0.96945 0-0.03961 0.35908-1.4835 0.79789-3.2091 0.43879-1.7256 0.79788-3.2655 0.79788-3.422 0-0.34552-0.14346-0.35296-1.4624-0.07286-0.54849 0.11648-1.2218 0.17631-1.496 0.13281-0.65197-0.10341-0.71541 0.2744-0.06666 0.39688 0.41073 0.07754 1.9607-0.10907 2.435-0.293 0.17173-0.06661 0.20463-0.02814 0.14573 0.1695-0.04186 0.14053-0.34899 1.3741-0.68264 2.7414-0.33364 1.3674-0.65249 2.5983-0.70848 2.7352-0.08968 0.21918-0.23093 0.14242-1.1808-0.64182-0.59331-0.48985-1.1742-1.0946-1.2914-1.3441-0.29619-0.63093-0.27446-2.2962 0.05064-3.853 0.54814-2.6248 0.21693-3.845-1.0366-3.7848zm-37.01 0.19792c-0.63532 0.04444-0.94801 1.077-1.0154 3.2923-0.1121 3.6818 0.63975 7.4337 1.7053 8.5106 0.27218 0.27508 0.92553 0.36374 0.92553 0.12557 0-0.07574-0.14655-0.19424-0.32556-0.26303-0.60438-0.23223-1.1063-1.3547-1.558-3.4835-0.35065-1.6526-0.49012-5.425-0.24391-6.5975 0.18717-0.89138 0.52457-1.3406 0.7767-1.0335 0.53527 0.65182 0.97042 3.3165 1.2862 7.8776 0.0839 1.2117 0.13766 1.4061 0.35192 1.2723 0.17346-1.0253-0.01164-1.996-0.10232-3.1445-0.32194-4.0752-0.83722-6.3001-1.5084-6.5154-0.10418-0.03342-0.20121-0.04717-0.29197-0.04083zm23.135 0.66301c-0.13902 0.0016-0.27163 0.0062-0.39739 0.01497-1.1029 0.07699-1.4628 0.32138-2.3823 1.6149-0.90425 1.2721-1.449 1.8443-1.7549 1.8443-0.41756 0-0.77874-0.26214-2.0929-1.5198-0.69475-0.66488-1.5022-1.3162-1.7947-1.4475-1.1972-0.53725-2.863-0.46664-6.6337 0.28164-1.0886 0.21604-1.997 0.41138-2.019 0.43356-0.07589 0.0767 0.32791 3.0466 0.48731 3.5843 0.33192 1.1197 1.1463 1.3958 3.7145 1.2588l1.4872-0.07958-0.23254 0.45475c-0.16138 0.31543-0.23179 0.75631-0.22789 1.4423 0.0041 0.82484 0.07216 1.1249 0.41031 1.8144 0.2228 0.45431 0.39388 0.82751 0.37982 0.82941-0.014 0.0019-0.92305-0.02796-2.02-0.06563-1.097-0.03766-2.0743-0.0443-2.1714-0.01497-0.13624 0.04112-0.15937 0.3025-0.10128 1.1436 0.0414 0.59964 0.10769 1.8762 0.14728 2.837 0.19429 4.7179 0.82904 7.001 2.4123 8.6785 0.72139 0.76435 2.1209 1.602 2.6768 1.602 0.66221 0 0.69294 0.10414 0.28836 0.98444-0.20982 0.45651-0.44355 1.2228-0.51935 1.7033-0.29334 1.859-0.15461 5.0694 0.4625 10.698 0.23753 2.1662 0.26782 4.6846 0.06305 5.2266-0.08372 0.2216-0.2415 0.50262-0.35088 0.62477-0.33485 0.37394 0.06673 0.46218 0.43047 0.09457 0.64253-0.64943 0.65123-2.3735 0.03979-7.9086-0.34738-3.1447-0.47227-7.1129-0.26562-8.4506 0.37374-2.4193 1.3959-3.469 3.144-3.2293 0.86229 0.11826 2.3654 0.79597 2.8908 1.3033 2.0921 2.0202 3.0811 7.8204 2.0025 11.747-0.19285 0.702-0.2444 0.76858-0.62063 0.80615-0.61299 0.06119-0.85574 0.6073-1.0997 2.4743-0.39534 3.0258 0.13426 4.8403 1.6071 5.5056 0.42742 0.19303 0.62241 0.18641 0.69195-0.02429 0.02392-0.07253-0.16512-0.20808-0.42013-0.30127-1.3294-0.48583-1.8714-2.3634-1.4821-5.133 0.26681-1.898 0.35746-2.1157 0.90382-2.1689 0.52533-0.05112 0.69082-0.34248 0.99787-1.7554 0.26359-1.2134 0.29137-4.4373 0.05116-5.9469-0.51543-3.2392-1.8492-5.5503-3.6825-6.38-0.7897-0.35742-2.2101-0.6772-2.5766-0.58033-0.3181 0.08408-0.3135 0.13481-0.06253-0.6997 0.11114-0.36956 0.2384-1.3989 0.28319-2.2872l0.08165-1.6149 0.38344 0.36174c0.21079 0.19899 0.65095 0.41934 0.97823 0.48989 0.68193 0.14699 1.6858-0.01834 1.9322-0.31833 0.39701-0.48346 0.45782-0.20363 0.42064 1.9239-0.0463 2.6519 0.08286 3.214 0.82269 3.5812 0.46155 0.22906 0.60174 0.23845 1.3772 0.09405 1.4917-0.27778 3.8055-1.5395 4.3429-2.3683 0.55665-0.85862 1.023-2.9316 1.2087-5.3718 0.04499-0.59129 0.14113-1.559 0.21342-2.1503 0.24358-1.9899 0.28898-3.2366 0.12867-3.5393-0.22662-0.42796-0.75973-0.65201-1.9777-0.83199-0.60091-0.08882-1.0922-0.16994-1.0919-0.17984 2.65e-4 -0.01 0.14975-0.31542 0.33228-0.67903 0.42391-0.84446 0.44993-2.046 0.06615-3.0665-0.14623-0.38883-0.26574-0.70745-0.26562-0.70745h1.8733c1.7862 0 1.8847-0.01394 2.1172-0.30437 0.32568-0.40679 0.67453-1.9765 0.76222-3.4292 0.06653-1.1027 0.05068-1.2028-0.23874-1.5141-0.60888-0.65503-4.0456-1.4085-6.1309-1.3844zm0.0341 0.40308c1.5539 0.0069 4.2932 0.4885 5.3056 0.97617l0.59841 0.28836-0.0083 1.0713c-0.0078 1.0454-0.33723 2.8854-0.58911 3.2887-0.10424 0.16693-0.51521 0.19994-2.3906 0.19224-1.4594-6e-3 -2.2645 0.03965-2.2645 0.12816 0 0.07553 0.17178 0.32148 0.38137 0.54674 0.46887 0.50391 0.68265 1.1218 0.68265 1.9725 0 0.84455-0.33197 1.6626-0.81494 2.0102-0.21194 0.15252-0.35535 0.3263-0.31884 0.38602 0.06046 0.09887 0.86333 0.26728 2.2639 0.47491 0.8448 0.12523 1.2592 0.34067 1.3488 0.70125 0.08372 0.33707 0.03451 1.0975-0.20102 3.1295-0.07283 0.62825-0.19997 1.8679-0.28267 2.7549-0.16178 1.7358-0.54126 3.6002-0.8599 4.223-0.42076 0.82231-1.9737 1.8579-3.6246 2.4174-1.2862 0.43595-2.0773 0.30351-2.2676-0.37982-0.05326-0.19125-0.0888-1.7839-0.0801-3.5393 0.01273-2.4669-0.0213-3.1915-0.14935-3.1915-0.09111 0-0.20314 0.23717-0.24908 0.5271-0.17372 1.098-1.2117 1.7482-2.3316 1.4609-0.6799-0.17442-1.1901-0.73008-1.387-1.51-0.08728-0.34578-0.21743-0.62527-0.28939-0.62167-0.07718 0.0039-0.164 0.96876-0.21187 2.3549-0.04463 1.2916-0.15773 2.6239-0.25115 2.9611-0.44255 1.5975-2.0237 1.7575-3.8607 0.39067-1.4289-1.0631-2.3113-2.8929-2.7187-5.6353-0.15136-1.0191-0.38889-4.884-0.39894-6.4931l-0.0031-0.45114 1.7952 0.02222c0.98729 0.01206 2.0468 0.04713 2.3544 0.07803 0.72505 0.07283 0.82426-0.11905 0.31213-0.60255-1.2437-1.1742-1.3268-3.8688-0.13229-4.2897 0.22821-0.0804 0.39056-0.22057 0.3607-0.31109-0.04034-0.12233-0.74222-0.16603-2.7326-0.17053-2.198-0.0051-2.7139-0.04231-2.8768-0.20774-0.26935-0.27349-0.58927-1.5758-0.69143-2.8138l-0.08423-1.0196 2.3105-0.46561c2.5684-0.5175 4.5517-0.62034 5.4911-0.28525 0.31985 0.11409 0.96369 0.61462 1.6624 1.2935 2.4411 2.3715 2.8613 2.3925 4.4488 0.21756 1.1384-1.5595 1.3686-1.7562 2.1699-1.8521 0.16511-0.01976 0.36248-0.02838 0.58446-0.02739zm-27.551 2.5704c-0.21805 0.03639-0.09913 0.61371 0.5457 3.0675 0.36566 1.3915 0.66508 2.5621 0.66508 2.6019 0 0.1284 0.23996 0.07857 1.0253-0.21394 0.81512-0.30362 1.1023-0.47841 1.1023-0.67076 0-0.17425-0.3067-0.14364-0.74414 0.07442-1.6581 0.83728-1.9202-2.4334-2.1813-4.1403 0-0.16219 0.18202-0.13976 1.0304 0.12661 0.56677 0.17795 1.1778 0.32446 1.3581 0.32556 0.28487 0.0019 0.30208-0.02259 0.13281-0.18604-0.16205-0.15647-0.86809-0.3998-2.8205-0.97152-0.04435-0.01299-0.08254-0.01863-0.11369-0.01344zm10.9 9.3922c-0.20073-0.01228-0.11501 0.52405 0.41083 2.7704 0.85629 3.658 1.0076 5.3028 0.58963 6.413-0.11129 0.29564-0.23774 0.65141-0.2806 0.79065-0.12622 0.41012 0.25708 0.18944 0.54932-0.31626 0.33148-0.57363 0.42681-2.1288 0.22273-3.6416-0.21993-1.6303-1.2597-5.9434-1.448-6.0069-0.01588-0.0053-0.03054-0.0085-0.04392-0.0093zm22.532 1.7777c-0.12935-3e-3 -0.29045 0.51862-0.73587 2.2267-1.5294 5.8651-1.5639 6.6288-0.51004 11.159 0.2837 1.2195 0.58051 2.6522 0.65991 3.1838 0.17388 1.1642 0.18994 2.9541 0.02739 3.0556-0.1821 0.11376-3.2393-4.12-3.9274-5.4389-0.36258-0.695-0.63401-1.4068-0.66146-1.7337-0.05185-0.61811-0.12622-0.75018-0.3452-0.6134-0.09776 0.06107-0.12387 0.39951-0.07648 0.98805 0.39048 4.8457 0.64846 6.4926 1.3493 8.6139 0.568 1.7193 0.99347 2.4867 2.0536 3.7037 1.1552 1.326 1.5015 2.1195 1.4361 3.2897-0.07484 1.3387-0.74299 2.6393-1.573 3.0618-0.32909 0.16753-0.61845 0.36449-0.64285 0.43718-0.07531 0.22452 0.55367 0.14446 0.9927-0.12609 1.3967-0.86068 2.0884-3.568 1.3245-5.1847-0.17461-0.36956-0.74659-1.1856-1.2712-1.8138-0.52465-0.62825-1.0925-1.4146-1.2614-1.7472-0.40592-0.79936-1.0581-2.8931-1.3188-4.2333-0.26221-1.3482-0.64054-4.5015-0.54002-4.5015 0.02236 0 0.38193 0.52891 0.79892 1.1756 0.77604 1.2036 3.4741 4.8624 3.7119 5.0338 0.25339 0.1826 0.3425-0.12625 0.4191-1.45 0.0925-1.5971-0.04885-2.6917-0.74311-5.7459-0.99648-4.3839-0.99491-5.3182 0.01601-9.0883 0.77069-2.8742 1.0137-3.9964 0.90485-4.1744-0.02963-0.04845-0.05748-0.07683-0.08733-0.07751zm-18.438 10.295c-0.09812 0-0.25383 0.2569-0.34572 0.57102-0.25772 0.88073-1.125 2.4752-1.9926 3.6623-0.43215 0.59129-0.73628 1.1274-0.67541 1.1911 0.06081 0.06379 0.16678 0.08074 0.23564 0.03772 0.20708-0.12934 1.1751-1.4438 1.6971-2.3043l0.48938-0.80615-0.07958 3.1579c-0.10621 4.2287-0.22188 4.7823-1.6082 7.7132-0.91648 1.9376-1.2085 3.1614-0.9989 4.1817 0.17075 0.83126 0.69938 1.7209 1.4759 2.4825h5.29e-4c0.36886 0.36177 0.60513 0.5043 0.69143 0.41703 0.08636-0.08726-0.11011-0.3991-0.57464-0.91209-1.6134-1.7817-1.6378-2.9465-0.12919-6.1671 0.44696-0.95417 0.92817-2.1584 1.0692-2.6758 0.31673-1.162 0.5185-3.5259 0.5271-6.1815 0.0038-1.1404 0.09021-2.4825 0.19895-3.0908 0.23633-1.3223 0.2358-1.2769 0.01913-1.2769zm4.7088 18.814c-0.36944 0-0.23326 0.2727 0.31574 0.63304 0.56105 0.36824 1.1592 1.2405 1.449 2.1125 0.30726 0.92449 0.29106 1.0645-0.11214 0.96222-0.31625-0.08023-0.3328-0.05597-0.3328 0.49868 0 0.62877-0.33139 1.9173-0.524 2.0376-0.06499 0.04059-0.29246-0.45559-0.50591-1.1028-0.21927-0.66483-0.46267-1.1767-0.55914-1.1767-0.09391 0-0.28535 0.29541-0.42581 0.65681-0.14045 0.3614-0.43279 0.90594-0.64957 1.2097-0.37889 0.53098-1.2679 1.2588-1.3885 1.1369-0.03202-0.03236-0.29682-0.60047-0.58808-1.2625-0.29125-0.66198-0.60776-1.2171-0.70332-1.2335-0.09561-0.01635-0.46464 0.36196-0.8201 0.84026-0.35546 0.47831-0.68451 0.86934-0.73122 0.8692-0.04676-1.43e-4 -0.29126-0.30634-0.54364-0.68058-0.25239-0.37424-0.6947-0.89596-0.98288-1.1591-0.50593-0.46197-0.55254-0.47593-1.3426-0.41186l-0.81804 0.06615-0.45268-1.2588c-0.25484-0.7087-0.52851-1.2588-0.6258-1.2588-0.09502 0-0.1726 0.0629-0.1726 0.14004 0 0.20445 0.93898 2.7284 1.0661 2.8655 0.05994 0.06465 0.37134 0.01468 0.70125-0.11265 0.54085-0.20872 0.62855-0.21072 0.99219-0.02066 0.21941 0.11468 0.75031 0.69252 1.1798 1.2842 0.42946 0.59164 0.8524 1.0778 0.93948 1.08 0.0871 0.0024 0.47577-0.36015 0.86403-0.80615l0.7059-0.81132 0.55707 1.2144c0.3064 0.66774 0.59325 1.2139 0.63717 1.2139 0.0439 0 0.30724-0.11748 0.58549-0.26097 0.56948-0.29362 1.1905-0.95708 1.6407-1.7539 0.16664-0.2949 0.33575-0.53689 0.3762-0.53744 0.04045-5.29e-4 0.20788 0.42064 0.37207 0.93586 0.16419 0.51522 0.36533 0.97836 0.447 1.0294 0.36033 0.22507 1.1684-1.432 1.1684-2.3962 0-0.34555 0.033-0.37313 0.35295-0.29197l0.35347 0.0894-0.077-0.75241c-0.11102-1.0871-0.67781-2.2609-1.4387-2.9802-0.35305-0.33376-0.7624-0.6072-0.9095-0.6072zm3.2422 1.8919c-0.1966 0.01222-0.0041 0.64896 1.4175 5.2643 0.29026 0.94238 0.59148 1.7136 0.66921 1.7136 0.23434 0 1.1871-0.82276 1.5679-1.3539l0.35657-0.49816 1.2552 1.4599c0.6903 0.80275 1.3223 1.4613 1.4046 1.4635 0.19197 0.0049 0.31574-0.62807 0.31574-1.6139v-0.77773l0.80202 0.18914c0.93299 0.21996 1.6859 0.5818 2.0443 0.98237 0.34741 0.38825 0.46056 0.358 0.6842-0.18294 0.27298-0.66038 0.241-1.5993-0.07596-2.2273-0.15751-0.31198-0.20817-0.53227-0.12247-0.53227 0.29538 0 1.9345 0.72173 2.4112 1.0614 0.27014 0.19252 0.61803 0.57653 0.77308 0.85369 0.33545 0.59966 0.47523 0.6325 0.57102 0.13436 0.17914-0.93154-0.3552-2.3439-1.264-3.3404-0.56455-0.61899-2.111-1.7999-2.357-1.7999-0.33406 0-0.07753 0.30213 0.91416 1.0775 1.1211 0.87654 1.5235 1.3318 1.9828 2.2433 0.46892 0.9305 0.37178 1.018-0.48731 0.43822-0.70822-0.47797-2.8966-1.34-3.4024-1.34-0.29915 0-0.26543 0.314 0.06667 0.61753 0.60953 0.55706 0.9558 1.7299 0.70538 2.3895-0.06626 0.17449-0.18608 0.14671-0.76481-0.17828-0.7041-0.39539-2.4506-0.89042-2.7668-0.78393-0.131 0.04419-0.16603 0.30936-0.13333 1.0232 0.02429 0.52992-0.0062 0.96066-0.0677 0.95756-0.06141-0.0033-0.64975-0.63386-1.3079-1.4015-0.6582-0.7676-1.2644-1.3998-1.3467-1.4051-0.08227-0.0052-0.18315 0.15693-0.22428 0.36018-0.09428 0.46586-1.3835 1.78-1.4733 1.5017-0.03401-0.10544-0.47006-1.547-0.96893-3.2039-0.49885-1.6569-0.98192-3.0378-1.0733-3.0685-0.04153-0.01397-0.07734-0.025-0.10542-0.02326z" stroke="#000" stroke-linejoin="round" stroke-width=".52917"/>
 </g>
</svg>
