<?xml version="1.0" standalone="no"?>
<!DOCTYPE svg PUBLIC "-//W3C//DTD SVG 20010904//EN"
 "http://www.w3.org/TR/2001/REC-SVG-20010904/DTD/svg10.dtd">
<svg version="1.0" xmlns="http://www.w3.org/2000/svg"
 width="952.000000pt" height="952.000000pt" viewBox="0 0 952.000000 952.000000"
 preserveAspectRatio="xMidYMid meet">
<metadata>
Created by potrace 1.14, written by Peter Selinger 2001-2017
</metadata>
<g transform="translate(0.000000,952.000000) scale(0.100000,-0.100000)"
fill="#000000" stroke="none">
<path d="M6950 8799 c0 -5 5 -7 10 -4 6 3 10 8 10 11 0 2 -4 4 -10 4 -5 0 -10
-5 -10 -11z"/>
<path d="M2225 8760 c-3 -6 1 -7 9 -4 18 7 21 14 7 14 -6 0 -13 -4 -16 -10z"/>
<path d="M4236 8758 c3 -5 10 -6 15 -3 13 9 11 12 -6 12 -8 0 -12 -4 -9 -9z"/>
<path d="M4385 8759 c-3 -4 2 -6 10 -5 21 3 28 13 10 13 -9 0 -18 -4 -20 -8z"/>
<path d="M6156 8758 c3 -5 10 -6 15 -3 13 9 11 12 -6 12 -8 0 -12 -4 -9 -9z"/>
<path d="M6305 8759 c-3 -4 2 -6 10 -5 21 3 28 13 10 13 -9 0 -18 -4 -20 -8z"/>
<path d="M3755 8731 c-3 -5 -2 -12 3 -15 5 -3 9 1 9 9 0 17 -3 19 -12 6z"/>
<path d="M5396 8727 c3 -10 9 -15 12 -12 3 3 0 11 -7 18 -10 9 -11 8 -5 -6z"/>
<path d="M6955 8731 c-3 -5 -2 -12 3 -15 5 -3 9 1 9 9 0 17 -3 19 -12 6z"/>
<path d="M7115 8720 c3 -5 8 -10 11 -10 2 0 4 5 4 10 0 6 -5 10 -11 10 -5 0
-7 -4 -4 -10z"/>
<path d="M7350 8719 c0 -5 5 -7 10 -4 6 3 10 8 10 11 0 2 -4 4 -10 4 -5 0 -10
-5 -10 -11z"/>
<path d="M7545 8720 c-3 -6 1 -7 9 -4 18 7 21 14 7 14 -6 0 -13 -4 -16 -10z"/>
<path d="M2350 8681 c0 -6 4 -13 10 -16 6 -3 7 1 4 9 -7 18 -14 21 -14 7z"/>
<path d="M5220 8680 c-9 -6 -10 -10 -3 -10 6 0 15 5 18 10 8 12 4 12 -15 0z"/>
<path d="M5275 8660 c-3 -5 -1 -10 4 -10 6 0 11 5 11 10 0 6 -2 10 -4 10 -3 0
-8 -4 -11 -10z"/>
<path d="M3716 8647 c3 -10 9 -15 12 -12 3 3 0 11 -7 18 -10 9 -11 8 -5 -6z"/>
<path d="M6916 8647 c3 -10 9 -15 12 -12 3 3 0 11 -7 18 -10 9 -11 8 -5 -6z"/>
<path d="M7076 8647 c3 -10 9 -15 12 -12 3 3 0 11 -7 18 -10 9 -11 8 -5 -6z"/>
<path d="M3516 8633 c-6 -14 -5 -15 5 -6 7 7 10 15 7 18 -3 3 -9 -2 -12 -12z"/>
<path d="M4226 8638 c3 -5 10 -6 15 -3 13 9 11 12 -6 12 -8 0 -12 -4 -9 -9z"/>
<path d="M4500 8646 c0 -2 8 -10 18 -17 15 -13 16 -12 3 4 -13 16 -21 21 -21
13z"/>
<path d="M4599 8633 c-13 -16 -12 -17 4 -4 9 7 17 15 17 17 0 8 -8 3 -21 -13z"/>
<path d="M5235 8640 c-3 -5 -1 -10 4 -10 6 0 11 5 11 10 0 6 -2 10 -4 10 -3 0
-8 -4 -11 -10z"/>
<path d="M6146 8638 c3 -5 10 -6 15 -3 13 9 11 12 -6 12 -8 0 -12 -4 -9 -9z"/>
<path d="M6716 8633 c-6 -14 -5 -15 5 -6 7 7 10 15 7 18 -3 3 -9 -2 -12 -12z"/>
<path d="M7174 8636 c1 -8 5 -18 8 -22 4 -3 5 1 4 10 -1 8 -5 18 -8 22 -4 3
-5 -1 -4 -10z"/>
<path d="M2335 8631 c-3 -5 -2 -12 3 -15 5 -3 9 1 9 9 0 17 -3 19 -12 6z"/>
<path d="M2036 8622 c-3 -4 4 -9 15 -9 23 -2 25 3 4 10 -8 4 -16 3 -19 -1z"/>
<path d="M2096 8622 c-3 -4 4 -9 15 -9 23 -2 25 3 4 10 -8 4 -16 3 -19 -1z"/>
<path d="M2575 8620 c3 -5 8 -10 11 -10 2 0 4 5 4 10 0 6 -5 10 -11 10 -5 0
-7 -4 -4 -10z"/>
<path d="M2895 8619 c-3 -4 2 -6 10 -5 21 3 28 13 10 13 -9 0 -18 -4 -20 -8z"/>
<path d="M3016 8622 c-2 -4 -1 -14 4 -22 7 -11 9 -9 7 8 -1 24 -3 26 -11 14z"/>
<path d="M3055 8620 c3 -5 8 -10 11 -10 2 0 4 5 4 10 0 6 -5 10 -11 10 -5 0
-7 -4 -4 -10z"/>
<path d="M3215 8620 c3 -5 8 -10 11 -10 2 0 4 5 4 10 0 6 -5 10 -11 10 -5 0
-7 -4 -4 -10z"/>
<path d="M3775 8619 c-3 -4 2 -6 10 -5 21 3 28 13 10 13 -9 0 -18 -4 -20 -8z"/>
<path d="M4095 8621 c-3 -5 -2 -12 3 -15 5 -3 9 1 9 9 0 17 -3 19 -12 6z"/>
<path d="M4335 8619 c-3 -4 2 -6 10 -5 21 3 28 13 10 13 -9 0 -18 -4 -20 -8z"/>
<path d="M4456 8622 c-2 -4 -1 -14 4 -22 7 -11 9 -9 7 8 -1 24 -3 26 -11 14z"/>
<path d="M4730 8620 c0 -5 5 -10 11 -10 5 0 7 5 4 10 -3 6 -8 10 -11 10 -2 0
-4 -4 -4 -10z"/>
<path d="M4776 8622 c-3 -5 1 -9 9 -9 8 0 12 4 9 9 -3 4 -7 8 -9 8 -2 0 -6 -4
-9 -8z"/>
<path d="M4835 8619 c-3 -4 2 -6 10 -5 21 3 28 13 10 13 -9 0 -18 -4 -20 -8z"/>
<path d="M4894 8622 c4 -3 14 -7 22 -8 9 -1 13 0 10 4 -4 3 -14 7 -22 8 -9 1
-13 0 -10 -4z"/>
<path d="M5013 8615 c0 -8 4 -12 9 -9 5 3 6 10 3 15 -9 13 -12 11 -12 -6z"/>
<path d="M5415 8620 c3 -5 8 -10 11 -10 2 0 4 5 4 10 0 6 -5 10 -11 10 -5 0
-7 -4 -4 -10z"/>
<path d="M5530 8620 c0 -5 5 -10 11 -10 5 0 7 5 4 10 -3 6 -8 10 -11 10 -2 0
-4 -4 -4 -10z"/>
<path d="M5574 8618 c-4 -7 -4 -10 1 -6 4 4 15 2 24 -5 14 -11 14 -10 2 6 -16
20 -18 21 -27 5z"/>
<path d="M5656 8618 c3 -5 10 -6 15 -3 13 9 11 12 -6 12 -8 0 -12 -4 -9 -9z"/>
<path d="M6015 8621 c-3 -5 -2 -12 3 -15 5 -3 9 1 9 9 0 17 -3 19 -12 6z"/>
<path d="M6255 8619 c-3 -4 2 -6 10 -5 21 3 28 13 10 13 -9 0 -18 -4 -20 -8z"/>
<path d="M6376 8622 c-2 -4 -1 -14 4 -22 7 -11 9 -9 7 8 -1 24 -3 26 -11 14z"/>
<path d="M6410 8619 c0 -5 5 -7 10 -4 6 3 10 8 10 11 0 2 -4 4 -10 4 -5 0 -10
-5 -10 -11z"/>
<path d="M6975 8619 c-3 -4 2 -6 10 -5 21 3 28 13 10 13 -9 0 -18 -4 -20 -8z"/>
<path d="M7374 8622 c4 -3 14 -7 22 -8 9 -1 13 0 10 4 -4 3 -14 7 -22 8 -9 1
-13 0 -10 -4z"/>
<path d="M1935 8600 c3 -5 8 -10 11 -10 2 0 4 5 4 10 0 6 -5 10 -11 10 -5 0
-7 -4 -4 -10z"/>
<path d="M2386 8602 c-3 -5 1 -9 9 -9 8 0 15 4 15 9 0 4 -4 8 -9 8 -6 0 -12
-4 -15 -8z"/>
<path d="M2680 8600 c-9 -6 -10 -10 -3 -10 6 0 15 5 18 10 8 12 4 12 -15 0z"/>
<path d="M2795 8601 c-3 -5 -2 -12 3 -15 5 -3 9 1 9 9 0 17 -3 19 -12 6z"/>
<path d="M2830 8601 c0 -6 4 -13 10 -16 6 -3 7 1 4 9 -7 18 -14 21 -14 7z"/>
<path d="M3160 8600 c-9 -6 -10 -10 -3 -10 6 0 15 5 18 10 8 12 4 12 -15 0z"/>
<path d="M3319 8593 c-13 -16 -12 -17 4 -4 16 13 21 21 13 21 -2 0 -10 -8 -17
-17z"/>
<path d="M3435 8601 c-3 -5 -2 -12 3 -15 5 -3 9 1 9 9 0 17 -3 19 -12 6z"/>
<path d="M3470 8601 c0 -6 4 -13 10 -16 6 -3 7 1 4 9 -7 18 -14 21 -14 7z"/>
<path d="M3560 8600 c-9 -6 -10 -10 -3 -10 6 0 15 5 18 10 8 12 4 12 -15 0z"/>
<path d="M3675 8601 c-3 -5 -2 -12 3 -15 5 -3 9 1 9 9 0 17 -3 19 -12 6z"/>
<path d="M3710 8601 c0 -6 4 -13 10 -16 6 -3 7 1 4 9 -7 18 -14 21 -14 7z"/>
<path d="M3990 8600 c0 -5 5 -10 10 -10 6 0 10 5 10 10 0 6 -4 10 -10 10 -5 0
-10 -4 -10 -10z"/>
<path d="M4193 8595 c0 -8 4 -12 9 -9 5 3 6 10 3 15 -9 13 -12 11 -12 -6z"/>
<path d="M4235 8601 c-3 -5 -2 -12 3 -15 5 -3 9 1 9 9 0 17 -3 19 -12 6z"/>
<path d="M5110 8601 c0 -6 4 -13 10 -16 6 -3 7 1 4 9 -7 18 -14 21 -14 7z"/>
<path d="M5156 8593 c-6 -14 -5 -15 5 -6 7 7 10 15 7 18 -3 3 -9 -2 -12 -12z"/>
<path d="M5310 8601 c0 -6 4 -13 10 -16 6 -3 7 1 4 9 -7 18 -14 21 -14 7z"/>
<path d="M5910 8600 c0 -5 5 -10 10 -10 6 0 10 5 10 10 0 6 -4 10 -10 10 -5 0
-10 -4 -10 -10z"/>
<path d="M6113 8595 c0 -8 4 -12 9 -9 5 3 6 10 3 15 -9 13 -12 11 -12 -6z"/>
<path d="M6155 8601 c-3 -5 -2 -12 3 -15 5 -3 9 1 9 9 0 17 -3 19 -12 6z"/>
<path d="M6519 8593 c-13 -16 -12 -17 4 -4 9 7 17 15 17 17 0 8 -8 3 -21 -13z"/>
<path d="M6635 8600 c-3 -5 -1 -10 4 -10 6 0 11 5 11 10 0 6 -2 10 -4 10 -3 0
-8 -4 -11 -10z"/>
<path d="M6670 8601 c0 -6 4 -13 10 -16 6 -3 7 1 4 9 -7 18 -14 21 -14 7z"/>
<path d="M6875 8601 c-3 -5 -2 -12 3 -15 5 -3 9 1 9 9 0 17 -3 19 -12 6z"/>
<path d="M6910 8601 c0 -6 4 -13 10 -16 6 -3 7 1 4 9 -7 18 -14 21 -14 7z"/>
<path d="M7070 8601 c0 -6 4 -13 10 -16 6 -3 7 1 4 9 -7 18 -14 21 -14 7z"/>
<path d="M7210 8599 c0 -5 5 -7 10 -4 6 3 10 8 10 11 0 2 -4 4 -10 4 -5 0 -10
-5 -10 -11z"/>
<path d="M7682 8584 c10 -10 20 -16 22 -13 3 3 -5 11 -17 18 -21 13 -21 12 -5
-5z"/>
<path d="M7415 8580 c-3 -5 -1 -10 4 -10 6 0 11 5 11 10 0 6 -2 10 -4 10 -3 0
-8 -4 -11 -10z"/>
<path d="M7450 8580 c0 -5 5 -10 11 -10 5 0 7 5 4 10 -3 6 -8 10 -11 10 -2 0
-4 -4 -4 -10z"/>
<path d="M7560 8580 c-12 -7 -10 -9 7 -7 12 0 19 5 17 9 -6 10 -6 10 -24 -2z"/>
<path d="M4515 8571 c-3 -5 -2 -12 3 -15 5 -3 9 1 9 9 0 17 -3 19 -12 6z"/>
<path d="M4953 8565 c0 -8 4 -12 9 -9 5 3 6 10 3 15 -9 13 -12 11 -12 -6z"/>
<path d="M1793 8553 c0 -9 4 -10 14 -2 7 6 13 12 13 14 0 1 -6 2 -13 2 -8 0
-14 -6 -14 -14z"/>
<path d="M1870 8566 c0 -2 7 -7 16 -10 8 -3 12 -2 9 4 -6 10 -25 14 -25 6z"/>
<path d="M2166 8562 c-3 -5 1 -9 9 -9 8 0 12 4 9 9 -3 4 -7 8 -9 8 -2 0 -6 -4
-9 -8z"/>
<path d="M2395 8560 c3 -5 8 -10 11 -10 2 0 4 5 4 10 0 6 -5 10 -11 10 -5 0
-7 -4 -4 -10z"/>
<path d="M2766 8562 c-3 -5 1 -9 9 -9 8 0 12 4 9 9 -3 4 -7 8 -9 8 -2 0 -6 -4
-9 -8z"/>
<path d="M3156 8562 c-3 -5 1 -9 9 -9 8 0 12 4 9 9 -3 4 -7 8 -9 8 -2 0 -6 -4
-9 -8z"/>
<path d="M3706 8562 c-3 -5 1 -9 9 -9 8 0 12 4 9 9 -3 4 -7 8 -9 8 -2 0 -6 -4
-9 -8z"/>
<path d="M3990 8559 c0 -5 5 -7 10 -4 6 3 10 8 10 11 0 2 -4 4 -10 4 -5 0 -10
-5 -10 -11z"/>
<path d="M4026 8562 c-3 -5 1 -9 9 -9 8 0 12 4 9 9 -3 4 -7 8 -9 8 -2 0 -6 -4
-9 -8z"/>
<path d="M4595 8560 c3 -5 8 -10 11 -10 2 0 4 5 4 10 0 6 -5 10 -11 10 -5 0
-7 -4 -4 -10z"/>
<path d="M5016 8562 c-3 -5 1 -9 9 -9 8 0 12 4 9 9 -3 4 -7 8 -9 8 -2 0 -6 -4
-9 -8z"/>
<path d="M5755 8561 c-3 -5 -2 -12 3 -15 5 -3 9 1 9 9 0 17 -3 19 -12 6z"/>
<path d="M5910 8559 c0 -5 5 -7 10 -4 6 3 10 8 10 11 0 2 -4 4 -10 4 -5 0 -10
-5 -10 -11z"/>
<path d="M5946 8562 c-3 -5 1 -9 9 -9 8 0 12 4 9 9 -3 4 -7 8 -9 8 -2 0 -6 -4
-9 -8z"/>
<path d="M6856 8558 c3 -5 10 -6 15 -3 13 9 11 12 -6 12 -8 0 -12 -4 -9 -9z"/>
<path d="M6906 8562 c-3 -5 1 -9 9 -9 8 0 12 4 9 9 -3 4 -7 8 -9 8 -2 0 -6 -4
-9 -8z"/>
<path d="M7319 8553 c-13 -16 -12 -17 4 -4 9 7 17 15 17 17 0 8 -8 3 -21 -13z"/>
<path d="M7630 8561 c0 -6 4 -13 10 -16 6 -3 7 1 4 9 -7 18 -14 21 -14 7z"/>
<path d="M8116 8553 c-6 -14 -5 -15 5 -6 7 7 10 15 7 18 -3 3 -9 -2 -12 -12z"/>
<path d="M1659 8548 c-5 -18 -6 -38 -1 -34 7 8 12 36 6 36 -2 0 -4 -1 -5 -2z"/>
<path d="M3039 8548 c-5 -18 -6 -38 -1 -34 7 8 12 36 6 36 -2 0 -4 -1 -5 -2z"/>
<path d="M3070 8542 c0 -5 7 -9 15 -9 8 0 12 4 9 9 -3 4 -9 8 -15 8 -5 0 -9
-4 -9 -8z"/>
<path d="M3866 8542 c-3 -5 1 -9 9 -9 8 0 15 4 15 9 0 4 -4 8 -9 8 -6 0 -12
-4 -15 -8z"/>
<path d="M4106 8542 c-3 -5 1 -9 9 -9 8 0 15 4 15 9 0 4 -4 8 -9 8 -6 0 -12
-4 -15 -8z"/>
<path d="M5786 8542 c-3 -5 1 -9 9 -9 8 0 15 4 15 9 0 4 -4 8 -9 8 -6 0 -12
-4 -15 -8z"/>
<path d="M6026 8542 c-3 -5 1 -9 9 -9 8 0 15 4 15 9 0 4 -4 8 -9 8 -6 0 -12
-4 -15 -8z"/>
<path d="M7846 8538 c3 -5 10 -6 15 -3 13 9 11 12 -6 12 -8 0 -12 -4 -9 -9z"/>
<path d="M2024 8518 l-19 -23 23 19 c12 11 22 21 22 23 0 8 -8 2 -26 -19z"/>
<path d="M4014 8529 c-3 -6 -2 -15 3 -20 5 -5 9 -1 9 11 0 23 -2 24 -12 9z"/>
<path d="M4715 8530 c-4 -6 -10 -8 -14 -6 -4 3 -8 -1 -8 -9 0 -10 4 -12 12 -5
7 5 14 8 17 5 2 -3 5 2 5 10 0 18 -3 19 -12 5z"/>
<path d="M5675 8530 c-4 -6 -10 -8 -14 -6 -4 3 -8 -1 -8 -9 0 -10 4 -12 12 -5
7 5 14 8 17 5 2 -3 5 2 5 10 0 18 -3 19 -12 5z"/>
<path d="M5934 8529 c-3 -6 -2 -15 3 -20 5 -5 9 -1 9 11 0 23 -2 24 -12 9z"/>
<path d="M1850 8521 c0 -6 4 -13 10 -16 6 -3 7 1 4 9 -7 18 -14 21 -14 7z"/>
<path d="M2166 8518 c4 -5 9 -7 12 -4 3 3 15 -2 26 -11 21 -18 21 -18 3 3 -16
20 -52 30 -41 12z"/>
<path d="M2493 8513 c0 -9 4 -10 14 -2 7 6 13 12 13 14 0 1 -6 2 -13 2 -8 0
-14 -6 -14 -14z"/>
<path d="M2670 8523 c0 -6 8 -17 18 -24 16 -13 16 -13 2 6 -8 11 -16 22 -17
24 -2 2 -3 0 -3 -6z"/>
<path d="M2751 8507 c-13 -21 -12 -21 5 -5 10 10 16 20 13 22 -3 3 -11 -5 -18
-17z"/>
<path d="M2837 8512 c-15 -16 -15 -19 -2 -19 8 0 13 3 10 5 -3 3 0 11 6 19 17
20 5 16 -14 -5z"/>
<path d="M2955 8522 c3 -3 -1 -12 -7 -21 -8 -10 -4 -9 10 3 26 23 26 23 7 23
-8 0 -13 -3 -10 -5z"/>
<path d="M3229 8517 c6 -8 9 -16 6 -19 -3 -2 2 -5 10 -5 13 0 13 3 -2 19 -19
21 -31 25 -14 5z"/>
<path d="M3310 8523 c0 -6 8 -17 18 -24 16 -13 16 -13 2 6 -8 11 -16 22 -17
24 -2 2 -3 0 -3 -6z"/>
<path d="M3391 8507 c-13 -21 -12 -21 5 -5 10 10 16 20 13 22 -3 3 -11 -5 -18
-17z"/>
<path d="M3711 8507 c-13 -21 -12 -21 5 -5 10 10 16 20 13 22 -3 3 -11 -5 -18
-17z"/>
<path d="M3797 8512 c-15 -16 -15 -19 -2 -19 8 0 13 3 10 5 -3 3 0 11 6 19 17
20 5 16 -14 -5z"/>
<path d="M4191 8507 c-13 -21 -12 -21 5 -5 10 10 16 20 13 22 -3 3 -11 -5 -18
-17z"/>
<path d="M4467 8519 c7 -7 15 -10 18 -7 3 3 -2 9 -12 12 -14 6 -15 5 -6 -5z"/>
<path d="M4533 8515 c0 -8 4 -12 9 -9 4 3 8 9 8 15 0 5 -4 9 -8 9 -5 0 -9 -7
-9 -15z"/>
<path d="M4613 8515 c0 -8 4 -12 9 -9 4 3 8 9 8 15 0 5 -4 9 -8 9 -5 0 -9 -7
-9 -15z"/>
<path d="M4773 8513 c0 -10 4 -10 16 -1 9 7 18 13 20 15 2 1 -5 1 -16 0 -11 0
-20 -7 -20 -14z"/>
<path d="M4896 8518 c3 -5 10 -6 15 -3 13 9 11 12 -6 12 -8 0 -12 -4 -9 -9z"/>
<path d="M5080 8526 c0 -2 8 -10 18 -17 15 -13 16 -12 3 4 -13 16 -21 21 -21
13z"/>
<path d="M5151 8507 c-13 -21 -12 -21 5 -5 10 10 16 20 13 22 -3 3 -11 -5 -18
-17z"/>
<path d="M5427 8519 c7 -7 15 -10 18 -7 3 3 -2 9 -12 12 -14 6 -15 5 -6 -5z"/>
<path d="M5493 8515 c0 -8 4 -12 9 -9 4 3 8 9 8 15 0 5 -4 9 -8 9 -5 0 -9 -7
-9 -15z"/>
<path d="M5573 8515 c0 -8 4 -12 9 -9 4 3 8 9 8 15 0 5 -4 9 -8 9 -5 0 -9 -7
-9 -15z"/>
<path d="M5733 8513 c0 -9 4 -10 14 -2 7 6 13 12 13 14 0 1 -6 2 -13 2 -8 0
-14 -6 -14 -14z"/>
<path d="M6111 8507 c-13 -21 -12 -21 5 -5 10 10 16 20 13 22 -3 3 -11 -5 -18
-17z"/>
<path d="M6397 8508 c19 -21 31 -25 14 -5 -6 8 -9 16 -6 19 3 2 -2 5 -10 5
-13 0 -13 -3 2 -19z"/>
<path d="M6429 8517 c6 -8 9 -16 6 -19 -3 -2 2 -5 10 -5 13 0 13 3 -2 19 -19
21 -31 25 -14 5z"/>
<path d="M6510 8523 c0 -6 8 -17 18 -24 16 -13 16 -13 2 6 -8 11 -16 22 -17
24 -2 2 -3 0 -3 -6z"/>
<path d="M6591 8507 c-13 -21 -12 -21 5 -5 10 10 16 20 13 22 -3 3 -11 -5 -18
-17z"/>
<path d="M6911 8507 c-13 -21 -12 -21 5 -5 10 10 16 20 13 22 -3 3 -11 -5 -18
-17z"/>
<path d="M6997 8512 c-15 -16 -15 -19 -2 -19 8 0 13 3 10 5 -3 3 0 11 6 19 17
20 5 16 -14 -5z"/>
<path d="M7313 8512 c-8 -14 -8 -19 1 -19 7 0 13 9 13 19 1 10 1 18 0 18 -1 0
-7 -8 -14 -18z"/>
<path d="M7796 8513 c-6 -14 -5 -15 5 -6 7 7 10 15 7 18 -3 3 -9 -2 -12 -12z"/>
<path d="M2990 8516 c0 -2 8 -10 18 -17 15 -13 16 -12 3 4 -13 16 -21 21 -21
13z"/>
<path d="M3630 8516 c0 -2 8 -10 18 -17 15 -13 16 -12 3 4 -13 16 -21 21 -21
13z"/>
<path d="M4350 8516 c0 -2 8 -10 18 -17 15 -13 16 -12 3 4 -13 16 -21 21 -21
13z"/>
<path d="M4429 8503 c-13 -16 -12 -17 4 -4 9 7 17 15 17 17 0 8 -8 3 -21 -13z"/>
<path d="M5310 8516 c0 -2 8 -10 18 -17 15 -13 16 -12 3 4 -13 16 -21 21 -21
13z"/>
<path d="M5389 8503 c-13 -16 -12 -17 4 -4 9 7 17 15 17 17 0 8 -8 3 -21 -13z"/>
<path d="M6270 8516 c0 -2 8 -10 18 -17 15 -13 16 -12 3 4 -13 16 -21 21 -21
13z"/>
<path d="M6349 8503 c-13 -16 -12 -17 4 -4 9 7 17 15 17 17 0 8 -8 3 -21 -13z"/>
<path d="M6830 8516 c0 -2 8 -10 18 -17 15 -13 16 -12 3 4 -13 16 -21 21 -21
13z"/>
<path d="M7279 8518 c-5 -18 -6 -38 -1 -34 7 8 12 36 6 36 -2 0 -4 -1 -5 -2z"/>
<path d="M1946 8498 c3 -4 9 -8 15 -8 5 0 9 4 9 8 0 5 -7 9 -15 9 -8 0 -12 -4
-9 -9z"/>
<path d="M2401 8496 c-7 -8 -26 -13 -46 -11 -20 1 -33 -1 -29 -4 3 -3 23 -6
45 -7 21 0 37 2 34 4 -3 3 0 11 6 19 6 7 9 13 6 13 -2 0 -10 -6 -16 -14z"/>
<path d="M2519 8493 c-13 -16 -12 -17 4 -4 16 13 21 21 13 21 -2 0 -10 -8 -17
-17z"/>
<path d="M2550 8506 c0 -2 7 -7 16 -10 8 -3 12 -2 9 4 -6 10 -25 14 -25 6z"/>
<path d="M2866 8502 c-3 -4 4 -9 15 -9 23 -2 25 3 4 10 -8 4 -16 3 -19 -1z"/>
<path d="M3079 8493 c-13 -16 -12 -17 4 -4 16 13 21 21 13 21 -2 0 -10 -8 -17
-17z"/>
<path d="M3506 8502 c-2 -4 4 -8 14 -8 10 0 16 4 14 8 -3 4 -9 8 -14 8 -5 0
-11 -4 -14 -8z"/>
<path d="M3825 8500 c-3 -6 1 -7 9 -4 18 7 21 14 7 14 -6 0 -13 -4 -16 -10z"/>
<path d="M3987 8499 c7 -9 10 -19 6 -22 -3 -4 -1 -7 5 -7 17 0 15 16 -5 31
-16 12 -17 12 -6 -2z"/>
<path d="M4100 8506 c0 -2 8 -10 18 -17 15 -13 16 -12 3 4 -13 16 -21 21 -21
13z"/>
<path d="M4803 8498 c-11 -19 -13 -39 -1 -32 5 3 7 9 4 12 -3 3 -1 11 5 19 6
7 9 13 6 13 -3 0 -9 -6 -14 -12z"/>
<path d="M4946 8500 c5 -8 9 -18 9 -22 0 -3 3 -9 7 -13 3 -4 5 0 4 9 -1 9 -8
22 -16 29 -10 10 -11 9 -4 -3z"/>
<path d="M5060 8506 c0 -2 8 -10 18 -17 15 -13 16 -12 3 4 -13 16 -21 21 -21
13z"/>
<path d="M5907 8499 c7 -9 10 -19 6 -22 -3 -4 -1 -7 5 -7 17 0 15 16 -5 31
-16 12 -17 12 -6 -2z"/>
<path d="M6020 8506 c0 -2 8 -10 18 -17 15 -13 16 -12 3 4 -13 16 -21 21 -21
13z"/>
<path d="M6706 8502 c-2 -4 4 -8 14 -8 10 0 16 4 14 8 -3 4 -9 8 -14 8 -5 0
-11 -4 -14 -8z"/>
<path d="M7121 8496 c-7 -8 -26 -13 -46 -11 -20 1 -33 -1 -29 -4 3 -3 23 -6
45 -7 21 0 37 2 34 4 -3 3 0 11 6 19 6 7 9 13 6 13 -2 0 -10 -6 -16 -14z"/>
<path d="M7443 8498 c-4 -7 -8 -20 -9 -28 -2 -38 -13 -45 -66 -41 -34 2 -57 9
-65 20 -10 14 -11 13 -7 -9 5 -20 3 -22 -5 -10 -6 8 -11 11 -11 5 0 -15 -203
-7 -212 8 -5 8 -8 5 -9 -8 0 -11 -3 -15 -5 -9 -3 6 -16 9 -30 6 -16 -3 -30 1
-35 9 -7 11 -9 9 -9 -6 0 -16 -2 -17 -9 -5 -6 8 -7 19 -5 25 3 5 -3 0 -14 -13
-13 -13 -22 -18 -24 -10 -2 6 -11 12 -20 14 -9 1 -15 -3 -12 -9 6 -16 -108 -9
-118 7 -5 7 -8 4 -8 -8 0 -15 -3 -16 -14 -7 -11 9 -15 9 -19 -1 -3 -7 -6 -8
-6 -2 -1 6 -14 9 -31 6 -16 -2 -37 -1 -46 2 -14 5 -14 9 -3 24 13 15 12 16 -3
4 -10 -8 -14 -21 -11 -30 4 -13 2 -12 -11 3 -10 11 -15 15 -12 9 3 -7 -1 -15
-10 -18 -12 -5 -15 -2 -10 9 3 9 2 14 -3 10 -5 -3 -12 1 -15 7 -3 7 -4 4 -1
-7 5 -19 1 -20 -67 -17 -53 3 -75 8 -85 20 -10 15 -11 14 -7 -8 2 -14 2 -20
-1 -14 -3 6 -23 8 -54 4 -58 -7 -71 -4 -65 18 3 11 0 9 -8 -4 -13 -21 -44 -22
-32 -1 5 8 2 8 -7 0 -14 -14 -71 -18 -82 -6 -4 3 -1 13 6 22 10 14 10 14 -5 3
-10 -8 -14 -21 -11 -30 4 -13 2 -12 -11 3 -10 11 -15 15 -12 9 3 -7 -1 -15
-10 -18 -12 -5 -15 -2 -10 9 3 9 2 14 -3 10 -5 -3 -12 1 -15 7 -3 7 -3 2 0
-10 6 -22 4 -23 -18 -11 -29 16 -89 19 -94 5 -3 -9 -38 -12 -86 -7 -4 1 -5 9
-2 19 4 12 1 10 -8 -4 -13 -21 -44 -22 -31 -1 4 7 -1 6 -10 -2 -9 -7 -30 -11
-47 -9 -16 3 -30 2 -30 -1 0 -4 -20 -5 -45 -3 -48 4 -55 20 -25 59 13 16 13
17 -1 6 -9 -7 -18 -10 -21 -8 -3 3 -5 -2 -5 -12 0 -49 1 -48 -78 -45 -66 3
-74 6 -72 22 2 10 9 26 17 37 13 16 13 17 -1 6 -9 -7 -18 -10 -21 -8 -3 3 -5
-2 -5 -12 0 -49 1 -48 -85 -46 -46 1 -86 2 -90 3 -4 0 -5 8 -2 18 4 12 1 10
-8 -4 -13 -21 -44 -22 -32 -1 5 8 2 8 -7 0 -14 -14 -71 -18 -82 -6 -4 3 -1 13
6 22 10 14 10 14 -5 3 -10 -8 -14 -21 -11 -30 4 -13 2 -12 -11 3 -10 11 -15
15 -12 9 3 -7 -1 -15 -10 -18 -12 -5 -15 -2 -10 9 3 9 2 14 -3 10 -5 -3 -12 1
-15 7 -3 7 -3 2 0 -10 5 -21 4 -23 -15 -13 -16 9 -21 9 -21 -1 0 -9 -3 -9 -10
2 -11 17 -30 20 -48 7 -10 -8 -51 -11 -100 -8 -7 1 -10 7 -7 14 4 6 0 4 -8 -5
-8 -10 -17 -15 -20 -12 -4 4 -47 6 -97 5 -84 -2 -90 -1 -87 18 2 10 9 27 17
38 13 16 13 17 -1 6 -9 -7 -18 -10 -21 -8 -3 3 -5 -2 -5 -12 0 -49 1 -48 -78
-45 -66 3 -74 6 -72 22 2 10 9 26 17 37 13 16 13 17 -1 6 -9 -7 -18 -10 -21
-8 -3 3 -5 -2 -5 -12 0 -49 1 -48 -85 -46 -46 1 -86 2 -90 3 -4 0 -5 8 -2 18
4 12 1 10 -8 -4 -13 -21 -44 -22 -32 -1 5 8 2 8 -7 0 -14 -14 -71 -18 -82 -6
-4 3 -1 13 6 22 10 14 10 14 -5 3 -10 -8 -14 -21 -11 -30 4 -13 2 -12 -11 3
-10 11 -15 15 -12 9 3 -7 -1 -15 -10 -18 -12 -5 -15 -2 -10 9 3 9 2 14 -3 10
-5 -3 -12 1 -15 7 -3 7 -3 2 0 -10 6 -22 4 -23 -18 -11 -29 16 -89 19 -94 5
-3 -9 -38 -12 -86 -7 -4 1 -5 9 -2 19 4 12 1 10 -8 -4 -13 -21 -44 -22 -31 -1
4 7 -1 6 -10 -2 -9 -7 -30 -11 -47 -9 -16 3 -30 1 -30 -2 0 -11 -54 2 -62 14
-5 7 -8 3 -8 -9 0 -16 -2 -17 -9 -5 -6 8 -7 19 -5 25 3 5 -3 0 -14 -13 -13
-13 -22 -18 -24 -10 -2 6 -11 12 -20 14 -9 1 -15 -3 -12 -9 6 -16 -108 -9
-118 7 -5 7 -8 4 -8 -8 0 -15 -3 -16 -14 -7 -11 9 -15 9 -19 -1 -3 -7 -6 -8
-6 -2 -1 6 -14 9 -31 6 -16 -2 -37 -1 -46 2 -14 5 -14 9 -3 24 13 15 12 16 -3
4 -10 -8 -14 -21 -11 -30 4 -13 2 -12 -11 3 -10 11 -15 15 -12 9 3 -7 -1 -15
-10 -18 -12 -5 -15 -2 -10 9 3 9 2 14 -3 10 -5 -3 -12 1 -15 7 -3 7 -4 4 -1
-7 4 -19 1 -20 -53 -16 -31 1 -60 8 -64 15 -5 7 -8 3 -8 -9 0 -18 -2 -18 -20
5 l-19 25 5 -25 c2 -14 2 -19 -2 -12 -3 6 -10 9 -16 6 -6 -4 -14 0 -19 7 -7
11 -9 10 -9 -5 0 -15 -3 -16 -15 -6 -12 10 -15 10 -15 -1 0 -11 -2 -11 -10 1
-5 8 -10 11 -10 5 0 -14 -173 -7 -182 8 -5 8 -8 5 -8 -8 0 -11 -4 -15 -8 -10
-4 6 -32 10 -62 10 -40 0 -54 4 -52 13 2 9 -2 11 -10 5 -18 -11 -52 -10 -61 2
-5 5 -6 1 -3 -10 5 -19 2 -20 -52 -16 -31 1 -60 8 -64 15 -5 7 -8 3 -8 -9 0
-18 -2 -18 -20 5 l-19 25 5 -25 c5 -20 3 -22 -5 -10 -10 13 -11 13 -11 0 -1
-12 -3 -12 -14 3 -12 15 -14 16 -20 2 -5 -14 -9 -14 -36 0 -27 14 -29 14 -23
-1 5 -14 3 -15 -15 -5 -11 6 -23 16 -26 23 -3 7 -4 4 -1 -7 5 -19 1 -20 -48
-15 -39 4 -51 9 -49 20 1 9 -5 6 -17 -8 -12 -13 -21 -18 -23 -10 -2 6 -11 12
-20 14 -10 1 -15 -3 -12 -11 4 -9 -2 -11 -21 -8 -22 5 -24 8 -13 22 12 15 11
15 -7 0 -23 -19 -65 -31 -65 -19 0 5 6 11 13 13 9 4 9 6 -1 6 -7 1 -15 -5 -18
-12 -4 -10 -17 -12 -49 -7 -29 4 -46 3 -48 -4 -3 -7 -9 -7 -19 2 -12 9 -18 10
-23 2 -5 -8 -13 -6 -27 7 -11 9 -18 13 -16 8 3 -10 -4 -15 -23 -15 -8 0 -7 6
2 18 13 16 13 16 -7 0 -24 -21 -55 -23 -73 -5 -10 8 -12 8 -7 0 3 -6 2 -14 -4
-18 -5 -3 -10 0 -10 7 0 8 -3 9 -8 3 -11 -16 -103 -13 -97 3 3 10 -1 9 -16 -2
-15 -10 -29 -12 -50 -6 -16 5 -29 6 -29 2 0 -9 -93 -7 -108 2 -6 3 -13 2 -16
-2 -3 -5 -18 -7 -33 -5 -32 5 -32 5 -93 0 -63 -5 -119 -18 -126 -28 -3 -5 -10
-7 -15 -4 -5 4 -9 1 -9 -4 0 -6 -7 -11 -15 -11 -14 0 -32 -12 -83 -57 -14 -13
-30 -23 -35 -23 -6 0 -8 -3 -4 -6 3 -4 -4 -21 -17 -38 -30 -40 -53 -88 -61
-128 -4 -18 -10 -37 -13 -42 -2 -5 -5 -41 -5 -80 0 -39 -4 -76 -9 -83 -5 -7
-5 -14 1 -18 6 -3 10 -21 9 -40 -1 -30 -3 -33 -17 -23 -14 11 -14 10 0 -7 19
-23 21 -54 5 -74 -8 -11 -8 -13 0 -8 13 8 13 -71 0 -92 -6 -10 -5 -12 2 -7 8
5 12 -1 12 -14 0 -14 -4 -19 -12 -14 -10 6 -10 4 0 -7 6 -7 12 -19 12 -27 0
-8 -5 -10 -12 -6 -10 6 -10 4 -2 -7 16 -21 18 -82 2 -73 -10 6 -10 4 -2 -7 15
-19 15 -232 0 -241 -8 -6 -8 -8 1 -8 13 0 12 -18 -1 -39 -6 -10 -5 -12 2 -7
16 10 15 -7 0 -23 -8 -9 -9 -12 -1 -7 13 7 13 -140 0 -161 -4 -6 -3 -14 3 -18
5 -3 10 -11 10 -16 0 -6 -6 -7 -12 -3 -10 6 -10 5 -1 -7 10 -12 10 -18 0 -29
-8 -8 -8 -11 0 -6 13 7 13 -140 0 -161 -4 -6 -3 -14 3 -18 5 -3 10 -11 10 -16
0 -6 -6 -7 -12 -3 -10 6 -10 5 -1 -7 10 -12 10 -18 0 -29 -8 -8 -8 -11 0 -6 8
4 11 -11 11 -54 -1 -37 -5 -57 -11 -53 -6 4 -7 1 -1 -8 14 -23 15 -161 1 -152
-9 5 -9 3 -1 -8 13 -17 13 -148 0 -168 -6 -10 -6 -12 2 -7 16 10 15 -7 -1 -23
-7 -9 -8 -12 0 -7 13 7 13 -140 0 -161 -4 -6 -3 -14 3 -18 5 -3 10 -11 10 -16
0 -6 -6 -7 -12 -3 -10 6 -10 5 -1 -7 10 -12 10 -18 0 -29 -8 -8 -8 -11 0 -6
13 7 13 -140 0 -161 -4 -6 -3 -14 3 -18 5 -3 10 -11 10 -16 0 -6 -6 -7 -12 -3
-10 6 -10 5 -1 -7 10 -12 10 -18 0 -29 -9 -10 -9 -11 0 -6 16 9 14 -75 -2 -86
-6 -5 -5 -8 2 -8 14 0 14 -48 1 -67 -5 -6 -5 -14 2 -18 5 -3 10 -11 10 -16 0
-6 -6 -7 -12 -3 -10 6 -10 5 -1 -7 10 -12 10 -18 0 -29 -8 -9 -8 -11 0 -6 15
8 13 -156 -2 -166 -6 -5 -5 -8 2 -8 14 0 14 -48 1 -67 -5 -6 -5 -14 2 -18 5
-3 10 -11 10 -16 0 -6 -6 -7 -12 -3 -10 6 -10 5 -1 -7 10 -12 10 -18 0 -29 -7
-7 -7 -10 -1 -7 13 7 14 -220 1 -240 -4 -6 -3 -14 3 -18 5 -3 10 -11 10 -16 0
-6 -6 -7 -13 -3 -9 6 -9 5 0 -7 10 -12 10 -18 0 -29 -8 -9 -8 -11 0 -6 15 8
13 -156 -2 -166 -6 -5 -5 -8 2 -8 14 0 14 -48 1 -67 -5 -6 -5 -14 2 -18 5 -3
10 -11 10 -16 0 -6 -6 -7 -12 -3 -10 6 -10 5 -1 -7 10 -12 10 -18 0 -29 -8 -8
-8 -11 0 -6 13 7 13 -181 -1 -203 -6 -10 -5 -12 2 -7 16 10 15 -7 0 -23 -8 -9
-9 -12 -1 -7 13 7 13 -140 0 -161 -4 -6 -3 -14 3 -18 5 -3 10 -11 10 -16 0 -6
-6 -7 -12 -3 -10 6 -10 5 -1 -7 10 -12 10 -18 0 -29 -8 -8 -8 -11 0 -6 13 7
13 -140 0 -161 -4 -6 -3 -14 3 -18 5 -3 10 -11 10 -16 0 -6 -6 -7 -12 -3 -10
6 -10 5 -1 -7 10 -12 10 -18 0 -29 -8 -8 -8 -11 0 -6 8 4 11 -11 11 -54 -1
-37 -5 -57 -11 -53 -6 4 -7 1 -1 -8 13 -21 15 -161 2 -153 -7 5 -8 2 -2 -7 13
-22 14 -113 1 -121 -9 -6 -9 -8 0 -8 13 0 12 -18 -1 -39 -6 -10 -5 -12 2 -7
16 10 15 -7 0 -23 -8 -9 -9 -12 -1 -7 13 7 13 -140 0 -161 -4 -6 -3 -14 3 -18
5 -3 10 -11 10 -16 0 -6 -6 -7 -12 -3 -10 6 -10 5 -1 -7 10 -12 10 -18 0 -29
-8 -8 -8 -11 0 -6 13 7 13 -140 0 -161 -4 -6 -3 -14 3 -18 5 -3 10 -11 10 -16
0 -6 -6 -7 -13 -3 -9 6 -9 5 0 -7 10 -12 10 -18 0 -29 -8 -8 -8 -11 0 -6 8 4
11 -11 11 -54 -1 -37 -5 -57 -11 -53 -6 4 -7 1 -1 -8 14 -23 15 -161 1 -152
-9 5 -9 3 -1 -8 13 -17 13 -148 0 -168 -6 -10 -6 -12 2 -7 16 10 15 -7 0 -23
-7 -8 -8 -11 -2 -8 8 5 11 -19 11 -83 -1 -58 -5 -87 -12 -83 -5 3 -4 0 3 -8
16 -17 16 -32 0 -23 -10 6 -10 5 -1 -7 10 -12 10 -18 0 -29 -9 -10 -9 -11 0
-6 9 5 12 -3 11 -28 -1 -21 -5 -33 -11 -29 -6 4 -7 1 -1 -8 13 -20 13 -151 0
-168 -8 -11 -8 -13 2 -7 8 5 12 0 12 -14 0 -13 -4 -19 -12 -14 -7 5 -8 3 -2
-7 14 -23 15 -49 1 -49 -8 0 -7 -4 3 -10 13 -8 13 -13 2 -31 -8 -11 -9 -18 -4
-15 6 3 9 -10 8 -32 -2 -26 -6 -36 -16 -34 -11 3 -10 -1 3 -16 19 -21 22 -48
7 -57 -7 -4 -8 -11 -2 -18 12 -15 10 -77 -2 -96 -6 -9 -5 -12 1 -8 6 4 10 -22
10 -66 1 -79 10 -143 24 -168 4 -9 5 -19 2 -23 -3 -3 -1 -6 5 -6 7 0 12 -8 12
-19 0 -10 7 -24 15 -31 9 -7 14 -19 11 -27 -3 -8 -2 -12 3 -9 5 3 19 -8 32
-24 31 -39 110 -97 145 -106 15 -4 38 -12 50 -19 12 -6 36 -10 53 -9 18 1 31
-3 31 -9 0 -8 4 -7 9 2 6 9 11 10 15 2 4 -6 12 -8 19 -4 17 11 86 9 79 -2 -3
-5 1 -5 9 1 17 14 49 14 49 1 0 -5 8 -3 17 4 14 12 16 12 8 0 -6 -10 -4 -12 5
-6 28 17 68 13 79 -9 7 -12 10 -14 7 -3 -3 9 0 18 7 18 50 5 93 2 100 -6 4 -6
10 -6 15 2 5 8 13 9 22 3 9 -5 19 -5 27 2 9 7 13 7 13 -2 0 -10 3 -10 15 0 11
9 15 9 15 1 0 -7 5 -9 12 -5 16 10 68 11 68 1 0 -4 9 -3 20 3 14 8 20 8 20 0
0 -7 7 -7 21 1 17 8 20 8 14 -1 -6 -10 -3 -10 11 -2 15 9 22 6 32 -11 8 -14
11 -15 8 -5 -3 10 -2 18 2 19 41 4 72 3 72 -4 0 -5 5 -5 11 -2 17 11 119 11
119 0 0 -7 3 -7 8 0 9 13 85 14 93 2 4 -5 13 -6 20 -1 15 9 167 7 182 -3 6 -3
7 -1 3 5 -4 7 -2 12 3 12 6 0 11 -6 11 -12 0 -8 3 -9 8 -3 9 13 85 14 93 2 4
-5 13 -6 20 -1 15 9 167 7 182 -3 6 -3 7 -1 3 5 -4 7 -2 12 3 12 6 0 11 -6 11
-12 0 -8 3 -9 8 -3 9 13 85 14 93 2 4 -5 12 -6 19 -2 19 12 280 12 280 0 0 -7
3 -7 8 0 8 11 152 14 152 3 0 -4 10 -4 23 0 25 9 169 7 193 -2 8 -3 12 -2 9 4
-3 6 -1 10 4 10 6 0 11 -6 11 -12 0 -8 3 -9 8 -3 7 10 152 15 152 5 0 -3 15
-5 34 -5 19 0 32 3 29 8 -2 4 1 7 6 7 6 0 11 -5 11 -11 0 -8 4 -8 13 -1 8 7
18 7 27 2 9 -5 19 -5 27 2 9 7 13 7 13 -2 0 -9 4 -9 13 -2 8 7 18 7 27 2 9 -6
20 -4 29 3 12 10 13 9 6 -2 -6 -10 -4 -12 4 -6 19 11 161 12 161 0 0 -7 3 -7
8 0 7 10 152 15 152 5 0 -3 15 -5 34 -5 19 0 32 3 29 8 -2 4 1 7 6 7 6 0 11
-6 11 -12 0 -8 3 -9 8 -3 9 13 85 14 93 2 4 -5 13 -6 20 -1 15 9 167 7 182 -3
6 -3 7 -1 3 5 -4 7 -2 12 3 12 6 0 11 -6 11 -12 0 -8 3 -9 8 -3 9 13 85 14 93
2 4 -5 13 -6 20 -1 15 9 167 7 182 -3 6 -3 7 -1 3 5 -4 7 -2 12 3 12 6 0 11
-6 11 -12 0 -8 3 -9 8 -3 9 13 85 14 93 2 4 -5 13 -6 20 -1 15 9 167 7 182 -3
6 -3 7 -1 3 5 -4 7 -2 12 3 12 6 0 11 -6 11 -12 0 -8 3 -9 8 -3 9 13 85 14 93
2 4 -5 12 -6 19 -2 19 12 280 12 280 0 0 -7 3 -7 8 0 8 11 152 14 152 3 0 -4
10 -4 23 0 25 9 169 7 193 -2 8 -3 12 -2 9 4 -3 6 -1 10 4 10 6 0 11 -6 11
-12 0 -8 3 -9 8 -3 7 10 152 15 152 5 0 -3 15 -5 34 -5 19 0 32 3 29 8 -2 4 1
7 6 7 6 0 11 -5 11 -11 0 -8 4 -8 13 -1 8 7 18 7 27 2 9 -5 19 -5 27 2 9 7 13
7 13 -2 0 -9 4 -9 13 -2 8 7 18 7 27 2 9 -5 19 -5 27 2 10 8 13 7 13 -3 0 -9
3 -10 8 -4 4 6 39 10 77 10 39 0 73 -4 77 -10 5 -7 8 -7 8 0 0 6 18 10 40 10
22 0 40 -4 40 -9 0 -5 7 -3 15 4 11 9 15 9 15 1 0 -9 5 -9 20 -1 11 6 20 7 20
1 0 -5 15 -6 37 0 26 5 40 4 45 -4 4 -7 8 -7 8 -2 0 12 83 13 91 1 4 -5 13 -5
20 -1 17 11 69 12 69 2 0 -5 5 -5 11 -2 16 10 119 11 119 1 0 -5 7 -3 15 4 11
9 15 9 15 1 0 -8 5 -9 18 -2 11 6 24 6 32 1 9 -5 19 -5 27 2 9 7 13 7 13 -1 0
-9 5 -9 20 -1 15 8 20 8 20 -2 0 -10 2 -10 9 0 4 8 12 14 16 14 4 0 12 -6 16
-14 5 -7 9 -8 9 -2 0 14 30 14 30 0 0 -7 3 -7 8 -1 11 15 32 17 32 3 0 -10 2
-10 9 0 12 20 18 19 36 -3 8 -11 13 -13 10 -5 -4 11 3 15 27 15 18 0 36 -4 40
-10 5 -6 8 -4 8 5 0 13 1 13 10 0 6 -9 13 -11 18 -5 9 12 62 14 62 3 0 -5 9
-4 20 2 14 8 20 8 20 0 0 -8 6 -8 20 0 14 8 20 8 20 0 0 -6 5 -8 11 -4 6 4 37
9 68 11 31 2 62 5 69 5 6 1 12 5 12 10 0 5 4 7 9 4 13 -9 116 58 153 99 18 21
41 46 50 56 10 11 16 19 14 19 -3 0 4 20 15 45 20 45 26 66 34 115 2 14 4 215
5 447 0 324 3 423 13 426 9 4 9 6 0 6 -8 1 -13 15 -13 35 0 19 6 37 13 39 10
4 10 6 0 6 -10 1 -13 47 -13 195 0 146 3 196 13 199 10 4 10 6 0 6 -8 1 -13
15 -13 35 0 19 6 37 13 39 10 4 10 6 0 6 -10 1 -13 79 -13 355 0 274 3 355 13
359 10 4 10 6 0 6 -8 1 -13 15 -13 35 0 19 6 37 13 39 10 4 10 6 0 6 -10 1
-13 47 -13 195 0 146 3 196 13 199 10 4 10 6 0 6 -8 1 -13 15 -13 35 0 19 6
37 13 39 10 4 10 6 0 6 -10 1 -13 47 -13 195 0 146 3 196 13 199 10 4 10 6 0
6 -8 1 -13 15 -13 35 0 19 6 37 13 39 10 4 10 6 0 6 -10 1 -13 47 -13 195 0
146 3 196 13 199 10 4 10 6 0 6 -8 1 -13 15 -13 35 0 19 6 37 13 39 10 4 10 6
0 6 -8 1 -13 15 -13 35 0 19 6 37 13 39 10 4 10 6 0 6 -8 1 -13 15 -13 35 0
19 6 37 13 39 10 4 10 6 0 6 -10 1 -13 47 -13 195 0 146 3 196 13 199 10 4 10
6 0 6 -8 1 -13 15 -13 35 0 19 6 37 13 39 8 4 9 6 0 6 -18 1 -18 1027 -1 1034
10 4 10 6 1 6 -8 1 -13 15 -13 35 0 19 6 37 13 39 10 4 10 6 0 6 -10 1 -13 47
-13 195 0 146 3 196 13 199 10 4 10 6 0 6 -8 1 -13 15 -13 35 0 19 6 37 13 39
9 4 9 6 0 6 -10 1 -13 90 -12 397 0 218 -2 399 -5 402 -3 3 0 12 7 20 10 13 9
14 -2 7 -11 -6 -13 -2 -7 21 5 21 4 25 -4 14 -8 -12 -10 -10 -10 12 0 15 -4
30 -10 33 -5 3 -10 15 -10 26 0 10 -5 19 -11 19 -6 0 -9 9 -6 20 3 11 2 18 -2
15 -4 -2 -20 13 -36 33 -30 41 -121 112 -142 112 -7 0 -13 5 -13 12 0 6 -3 9
-6 5 -3 -3 -18 -1 -33 5 -21 9 -146 15 -350 18 -8 0 -11 6 -7 16 3 8 2 12 -4
9 -6 -3 -10 -12 -10 -19 0 -9 -9 -12 -25 -8 -14 2 -22 9 -19 16 3 6 -1 3 -9
-7 -20 -24 -54 -12 -35 12 10 13 9 13 -8 -1 -11 -10 -31 -18 -44 -18 -22 0
-22 1 -7 18 14 15 14 19 3 19 -8 0 -14 -3 -14 -6 1 -3 -2 -14 -7 -24 -6 -15
-10 -16 -16 -5 -5 7 -9 9 -9 3 0 -6 -23 -9 -55 -7 -50 4 -55 6 -43 20 12 16
11 16 -7 1 -23 -19 -65 -31 -65 -19 0 5 4 11 9 14 5 4 8 14 6 24 -1 9 2 23 8
30 5 6 7 12 4 12 -3 0 -9 -6 -14 -12z"/>
<path d="M7553 8489 c-1 -10 6 -24 15 -31 15 -12 16 -11 3 5 -10 12 -11 20 -2
30 8 10 7 14 -2 14 -7 0 -14 -8 -14 -18z"/>
<path d="M7855 8500 c3 -5 8 -10 11 -10 2 0 4 5 4 10 0 6 -5 10 -11 10 -5 0
-7 -4 -4 -10z"/>
<path d="M1796 8487 c3 -10 9 -15 12 -12 3 3 0 11 -7 18 -10 9 -11 8 -5 -6z"/>
<path d="M2253 8477 c0 -12 1 -16 4 -9 4 10 10 9 26 -5 15 -12 18 -13 9 -2 -6
9 -8 20 -4 25 4 5 3 6 -2 2 -5 -4 -14 -4 -20 2 -8 6 -12 2 -13 -13z"/>
<path d="M2455 8490 c-4 -6 -10 -8 -15 -5 -5 3 -11 1 -14 -4 -8 -13 22 -7 36
7 7 7 9 12 6 12 -4 0 -10 -5 -13 -10z"/>
<path d="M2598 8493 c7 -3 16 -2 19 1 4 3 -2 6 -13 5 -11 0 -14 -3 -6 -6z"/>
<path d="M2653 8485 c0 -8 4 -12 9 -9 5 3 6 10 3 15 -9 13 -12 11 -12 -6z"/>
<path d="M2775 8491 c-3 -5 -2 -12 3 -15 5 -3 9 1 9 9 0 17 -3 19 -12 6z"/>
<path d="M3293 8485 c0 -8 4 -12 9 -9 5 3 6 10 3 15 -9 13 -12 11 -12 -6z"/>
<path d="M3415 8491 c-3 -5 -2 -12 3 -15 5 -3 9 1 9 9 0 17 -3 19 -12 6z"/>
<path d="M3613 8485 c0 -8 4 -12 9 -9 5 3 6 10 3 15 -9 13 -12 11 -12 -6z"/>
<path d="M3735 8491 c-3 -5 -2 -12 3 -15 5 -3 9 1 9 9 0 17 -3 19 -12 6z"/>
<path d="M3937 8490 c7 -8 20 -15 29 -16 9 -1 13 1 9 4 -4 4 -10 7 -13 7 -4 0
-14 4 -22 9 -12 7 -13 6 -3 -4z"/>
<path d="M4215 8491 c-3 -5 -2 -12 3 -15 5 -3 9 1 9 9 0 17 -3 19 -12 6z"/>
<path d="M4393 8485 c0 -8 3 -13 5 -10 3 3 12 -1 21 -7 10 -8 9 -4 -3 10 -23
26 -23 26 -23 7z"/>
<path d="M4489 8483 c-13 -16 -12 -17 4 -4 9 7 17 15 17 17 0 8 -8 3 -21 -13z"/>
<path d="M4655 8490 c-4 -6 -10 -8 -15 -5 -4 3 -7 -3 -6 -12 2 -9 8 -18 15
-19 7 -2 7 -1 1 3 -7 3 -5 12 6 24 9 10 14 19 11 19 -3 0 -9 -5 -12 -10z"/>
<path d="M4856 8493 c-4 -5 -13 -8 -18 -8 -6 0 -12 -6 -14 -13 -1 -7 0 -8 3
-2 2 5 8 8 13 5 4 -3 13 2 20 10 13 15 9 21 -4 8z"/>
<path d="M4899 8488 c7 -10 17 -15 22 -12 5 3 9 0 9 -7 0 -7 3 -10 6 -6 3 3 1
14 -5 24 -7 12 -10 13 -11 4 0 -11 -3 -11 -17 0 -16 13 -17 12 -4 -3z"/>
<path d="M5175 8491 c-3 -5 -2 -12 3 -15 5 -3 9 1 9 9 0 17 -3 19 -12 6z"/>
<path d="M5353 8485 c0 -8 3 -13 5 -10 3 3 12 -1 21 -7 10 -8 9 -4 -3 10 -23
26 -23 26 -23 7z"/>
<path d="M5449 8483 c-13 -16 -12 -17 4 -4 9 7 17 15 17 17 0 8 -8 3 -21 -13z"/>
<path d="M5615 8490 c-4 -6 -10 -8 -15 -5 -4 3 -7 -3 -6 -12 2 -9 8 -18 15
-19 7 -2 7 -1 1 3 -7 3 -5 12 6 24 9 10 14 19 11 19 -3 0 -9 -5 -12 -10z"/>
<path d="M5857 8490 c7 -8 20 -15 29 -16 9 -1 13 1 9 4 -4 4 -10 7 -13 7 -4 0
-14 4 -22 9 -12 7 -13 6 -3 -4z"/>
<path d="M6135 8491 c-3 -5 -2 -12 3 -15 5 -3 9 1 9 9 0 17 -3 19 -12 6z"/>
<path d="M6313 8485 c0 -8 3 -13 5 -10 3 3 12 -1 21 -7 10 -8 9 -4 -3 10 -23
26 -23 26 -23 7z"/>
<path d="M6493 8485 c0 -8 4 -12 9 -9 5 3 6 10 3 15 -9 13 -12 11 -12 -6z"/>
<path d="M6615 8491 c-3 -5 -2 -12 3 -15 5 -3 9 1 9 9 0 17 -3 19 -12 6z"/>
<path d="M6813 8485 c0 -8 4 -12 9 -9 5 3 6 10 3 15 -9 13 -12 11 -12 -6z"/>
<path d="M6935 8491 c-3 -5 -2 -12 3 -15 5 -3 9 1 9 9 0 17 -3 19 -12 6z"/>
<path d="M7174 8489 c-3 -6 -2 -15 3 -20 5 -5 9 -1 9 11 0 23 -2 24 -12 9z"/>
<path d="M7739 8498 c-5 -18 -6 -38 -1 -34 7 8 12 36 6 36 -2 0 -4 -1 -5 -2z"/>
<path d="M2026 8478 c3 -4 9 -8 15 -8 5 0 9 4 9 8 0 5 -7 9 -15 9 -8 0 -12 -4
-9 -9z"/>
<path d="M2539 8473 c-13 -16 -12 -17 4 -4 9 7 17 15 17 17 0 8 -8 3 -21 -13z"/>
<path d="M2970 8479 c0 -5 5 -7 10 -4 6 3 10 8 10 11 0 2 -4 4 -10 4 -5 0 -10
-5 -10 -11z"/>
<path d="M3150 8478 c0 -4 4 -8 9 -8 6 0 12 4 15 8 3 5 -1 9 -9 9 -8 0 -15 -4
-15 -9z"/>
<path d="M3879 8483 c0 -5 -2 -16 -4 -26 -2 -11 -1 -16 3 -13 8 8 14 46 7 46
-3 0 -5 -3 -6 -7z"/>
<path d="M4330 8486 c0 -2 7 -7 16 -10 8 -3 12 -2 9 4 -6 10 -25 14 -25 6z"/>
<path d="M4445 8480 c-3 -6 1 -7 9 -4 18 7 21 14 7 14 -6 0 -13 -4 -16 -10z"/>
<path d="M5020 8485 c0 -2 6 -8 13 -14 10 -8 14 -7 14 2 0 8 -6 14 -14 14 -7
0 -13 -1 -13 -2z"/>
<path d="M5290 8486 c0 -2 7 -7 16 -10 8 -3 12 -2 9 4 -6 10 -25 14 -25 6z"/>
<path d="M5405 8480 c-3 -6 1 -7 9 -4 18 7 21 14 7 14 -6 0 -13 -4 -16 -10z"/>
<path d="M5799 8483 c0 -5 -2 -16 -4 -26 -2 -11 -1 -16 3 -13 8 8 14 46 7 46
-3 0 -5 -3 -6 -7z"/>
<path d="M6250 8486 c0 -2 7 -7 16 -10 8 -3 12 -2 9 4 -6 10 -25 14 -25 6z"/>
<path d="M6365 8480 c-3 -6 1 -7 9 -4 18 7 21 14 7 14 -6 0 -13 -4 -16 -10z"/>
<path d="M7471 8467 c-13 -21 -12 -21 5 -5 10 10 16 20 13 22 -3 3 -11 -5 -18
-17z"/>
<path d="M7795 8480 c-3 -5 -1 -10 4 -10 6 0 11 5 11 10 0 6 -2 10 -4 10 -3 0
-8 -4 -11 -10z"/>
<path d="M1750 8476 c0 -2 8 -10 18 -17 15 -13 16 -12 3 4 -13 16 -21 21 -21
13z"/>
<path d="M2669 8463 c-13 -16 -12 -17 4 -4 9 7 17 15 17 17 0 8 -8 3 -21 -13z"/>
<path d="M3309 8463 c-13 -16 -12 -17 4 -4 9 7 17 15 17 17 0 8 -8 3 -21 -13z"/>
<path d="M3710 8476 c0 -2 8 -10 18 -17 15 -13 16 -12 3 4 -13 16 -21 21 -21
13z"/>
<path d="M6509 8463 c-13 -16 -12 -17 4 -4 9 7 17 15 17 17 0 8 -8 3 -21 -13z"/>
<path d="M6910 8476 c0 -2 8 -10 18 -17 15 -13 16 -12 3 4 -13 16 -21 21 -21
13z"/>
<path d="M1496 8458 c3 -5 10 -6 15 -3 13 9 11 12 -6 12 -8 0 -12 -4 -9 -9z"/>
<path d="M1984 8462 c4 -3 14 -7 22 -8 9 -1 13 0 10 4 -4 3 -14 7 -22 8 -9 1
-13 0 -10 -4z"/>
<path d="M2065 8460 c-3 -6 1 -7 9 -4 18 7 21 14 7 14 -6 0 -13 -4 -16 -10z"/>
<path d="M2100 8464 c0 -1 6 -7 14 -13 10 -9 15 -8 19 2 3 8 -3 13 -14 13 -11
0 -19 -1 -19 -2z"/>
<path d="M2940 8466 c0 -2 8 -10 18 -17 15 -13 16 -12 3 4 -13 16 -21 21 -21
13z"/>
<path d="M3580 8466 c0 -2 8 -10 18 -17 15 -13 16 -12 3 4 -13 16 -21 21 -21
13z"/>
<path d="M4020 8464 c0 -1 6 -7 14 -13 10 -9 15 -8 19 2 3 8 -3 13 -14 13 -11
0 -19 -1 -19 -2z"/>
<path d="M4680 8460 c-9 -6 -10 -10 -3 -10 6 0 15 5 18 10 8 12 4 12 -15 0z"/>
<path d="M4866 8462 c-2 -4 4 -8 14 -8 10 0 16 4 14 8 -3 4 -9 8 -14 8 -5 0
-11 -4 -14 -8z"/>
<path d="M4987 8453 c3 -7 6 -13 8 -13 1 0 7 6 13 13 8 10 6 13 -7 13 -11 0
-17 -6 -14 -13z"/>
<path d="M5640 8460 c-9 -6 -10 -10 -3 -10 6 0 15 5 18 10 8 12 4 12 -15 0z"/>
<path d="M5756 8458 c3 -5 10 -6 15 -3 13 9 11 12 -6 12 -8 0 -12 -4 -9 -9z"/>
<path d="M5940 8464 c0 -1 6 -7 14 -13 10 -9 15 -8 19 2 3 8 -3 13 -14 13 -11
0 -19 -1 -19 -2z"/>
<path d="M6780 8466 c0 -2 8 -10 18 -17 15 -13 16 -12 3 4 -13 16 -21 21 -21
13z"/>
<path d="M7387 8453 c3 -7 6 -13 8 -13 1 0 7 6 13 13 8 10 6 13 -7 13 -11 0
-17 -6 -14 -13z"/>
<path d="M7600 8460 c-9 -6 -10 -10 -3 -10 6 0 15 5 18 10 8 12 4 12 -15 0z"/>
<path d="M7930 8459 c0 -5 5 -7 10 -4 6 3 10 8 10 11 0 2 -4 4 -10 4 -5 0 -10
-5 -10 -11z"/>
<path d="M7966 8462 c-3 -5 1 -9 9 -9 8 0 12 4 9 9 -3 4 -7 8 -9 8 -2 0 -6 -4
-9 -8z"/>
<path d="M8016 8462 c-3 -4 4 -9 15 -9 23 -2 25 3 4 10 -8 4 -16 3 -19 -1z"/>
<path d="M7148 8453 c7 -3 16 -2 19 1 4 3 -2 6 -13 5 -11 0 -14 -3 -6 -6z"/>
<path d="M8350 8321 c0 -6 4 -12 8 -15 5 -3 9 1 9 9 0 8 -4 15 -9 15 -4 0 -8
-4 -8 -9z"/>
<path d="M8520 7840 c-9 -6 -10 -10 -3 -10 6 0 15 5 18 10 8 12 4 12 -15 0z"/>
<path d="M8470 7766 c0 -2 7 -7 16 -10 8 -3 12 -2 9 4 -6 10 -25 14 -25 6z"/>
<path d="M8550 7716 c0 -2 8 -10 18 -17 15 -13 16 -12 3 4 -13 16 -21 21 -21
13z"/>
<path d="M8473 7445 c0 -8 4 -12 9 -9 5 3 6 10 3 15 -9 13 -12 11 -12 -6z"/>
<path d="M906 7318 c3 -5 10 -6 15 -3 13 9 11 12 -6 12 -8 0 -12 -4 -9 -9z"/>
<path d="M8496 7038 c3 -5 10 -6 15 -3 13 9 11 12 -6 12 -8 0 -12 -4 -9 -9z"/>
<path d="M950 6856 c0 -2 8 -10 18 -17 15 -13 16 -12 3 4 -13 16 -21 21 -21
13z"/>
<path d="M8479 6628 c-5 -18 -6 -38 -1 -34 7 8 12 36 6 36 -2 0 -4 -1 -5 -2z"/>
<path d="M8475 6351 c-3 -5 -2 -12 3 -15 5 -3 9 1 9 9 0 17 -3 19 -12 6z"/>
<path d="M870 6106 c0 -2 7 -7 16 -10 8 -3 12 -2 9 4 -6 10 -25 14 -25 6z"/>
<path d="M8479 6108 c-5 -18 -6 -38 -1 -34 7 8 12 36 6 36 -2 0 -4 -1 -5 -2z"/>
<path d="M956 5882 c-3 -5 1 -9 9 -9 8 0 12 4 9 9 -3 4 -7 8 -9 8 -2 0 -6 -4
-9 -8z"/>
<path d="M8580 5806 c0 -2 8 -10 18 -17 15 -13 16 -12 3 4 -13 16 -21 21 -21
13z"/>
<path d="M8496 5678 c3 -5 10 -6 15 -3 13 9 11 12 -6 12 -8 0 -12 -4 -9 -9z"/>
<path d="M8496 5438 c3 -5 10 -6 15 -3 13 9 11 12 -6 12 -8 0 -12 -4 -9 -9z"/>
<path d="M8515 5160 c3 -5 8 -10 11 -10 2 0 4 5 4 10 0 6 -5 10 -11 10 -5 0
-7 -4 -4 -10z"/>
<path d="M8496 4798 c3 -5 10 -6 15 -3 13 9 11 12 -6 12 -8 0 -12 -4 -9 -9z"/>
<path d="M8515 4520 c3 -5 8 -10 11 -10 2 0 4 5 4 10 0 6 -5 10 -11 10 -5 0
-7 -4 -4 -10z"/>
<path d="M8479 4388 c-5 -18 -6 -38 -1 -34 7 8 12 36 6 36 -2 0 -4 -1 -5 -2z"/>
<path d="M870 4186 c0 -2 7 -7 16 -10 8 -3 12 -2 9 4 -6 10 -25 14 -25 6z"/>
<path d="M8475 4111 c-3 -5 -2 -12 3 -15 5 -3 9 1 9 9 0 17 -3 19 -12 6z"/>
<path d="M956 3962 c-3 -5 1 -9 9 -9 8 0 12 4 9 9 -3 4 -7 8 -9 8 -2 0 -6 -4
-9 -8z"/>
<path d="M8496 3838 c3 -5 10 -6 15 -3 13 9 11 12 -6 12 -8 0 -12 -4 -9 -9z"/>
<path d="M8479 3428 c-5 -18 -6 -38 -1 -34 7 8 12 36 6 36 -2 0 -4 -1 -5 -2z"/>
<path d="M8475 3151 c-3 -5 -2 -12 3 -15 5 -3 9 1 9 9 0 17 -3 19 -12 6z"/>
<path d="M8479 3108 c-5 -18 -6 -38 -1 -34 7 8 12 36 6 36 -2 0 -4 -1 -5 -2z"/>
<path d="M950 3016 c0 -2 8 -10 18 -17 15 -13 16 -12 3 4 -13 16 -21 21 -21
13z"/>
<path d="M8475 2831 c-3 -5 -2 -12 3 -15 5 -3 9 1 9 9 0 17 -3 19 -12 6z"/>
<path d="M8496 2558 c3 -5 10 -6 15 -3 13 9 11 12 -6 12 -8 0 -12 -4 -9 -9z"/>
<path d="M8476 2367 c3 -10 9 -15 12 -12 3 3 0 11 -7 18 -10 9 -11 8 -5 -6z"/>
<path d="M870 2266 c0 -2 7 -7 16 -10 8 -3 12 -2 9 4 -6 10 -25 14 -25 6z"/>
<path d="M2126 958 c3 -5 10 -6 15 -3 13 9 11 12 -6 12 -8 0 -12 -4 -9 -9z"/>
<path d="M2270 961 c0 -6 4 -13 10 -16 6 -3 7 1 4 9 -7 18 -14 21 -14 7z"/>
<path d="M2336 958 c3 -5 10 -6 15 -3 13 9 11 12 -6 12 -8 0 -12 -4 -9 -9z"/>
<path d="M2373 951 c0 -11 5 -18 9 -15 4 3 5 11 1 19 -7 21 -12 19 -10 -4z"/>
<path d="M3236 958 c3 -5 10 -6 15 -3 13 9 11 12 -6 12 -8 0 -12 -4 -9 -9z"/>
<path d="M3396 958 c3 -5 10 -6 15 -3 13 9 11 12 -6 12 -8 0 -12 -4 -9 -9z"/>
<path d="M3520 960 c-9 -6 -10 -10 -3 -10 6 0 15 5 18 10 8 12 4 12 -15 0z"/>
<path d="M3576 958 c3 -5 10 -6 15 -3 13 9 11 12 -6 12 -8 0 -12 -4 -9 -9z"/>
<path d="M4196 958 c3 -5 10 -6 15 -3 13 9 11 12 -6 12 -8 0 -12 -4 -9 -9z"/>
<path d="M4356 958 c3 -5 10 -6 15 -3 13 9 11 12 -6 12 -8 0 -12 -4 -9 -9z"/>
<path d="M5796 958 c3 -5 10 -6 15 -3 13 9 11 12 -6 12 -8 0 -12 -4 -9 -9z"/>
<path d="M5956 958 c3 -5 10 -6 15 -3 13 9 11 12 -6 12 -8 0 -12 -4 -9 -9z"/>
<path d="M6080 960 c-9 -6 -10 -10 -3 -10 6 0 15 5 18 10 8 12 4 12 -15 0z"/>
<path d="M6136 958 c3 -5 10 -6 15 -3 13 9 11 12 -6 12 -8 0 -12 -4 -9 -9z"/>
<path d="M6756 958 c3 -5 10 -6 15 -3 13 9 11 12 -6 12 -8 0 -12 -4 -9 -9z"/>
<path d="M6916 958 c3 -5 10 -6 15 -3 13 9 11 12 -6 12 -8 0 -12 -4 -9 -9z"/>
<path d="M7070 961 c0 -6 4 -13 10 -16 6 -3 7 1 4 9 -7 18 -14 21 -14 7z"/>
<path d="M7136 958 c3 -5 10 -6 15 -3 13 9 11 12 -6 12 -8 0 -12 -4 -9 -9z"/>
<path d="M7173 951 c0 -11 5 -18 9 -15 4 3 5 11 1 19 -7 21 -12 19 -10 -4z"/>
<path d="M7250 959 c0 -5 5 -7 10 -4 6 3 10 8 10 11 0 2 -4 4 -10 4 -5 0 -10
-5 -10 -11z"/>
<path d="M1816 938 c3 -5 10 -6 15 -3 13 9 11 12 -6 12 -8 0 -12 -4 -9 -9z"/>
<path d="M1970 940 c0 -5 5 -10 11 -10 5 0 7 5 4 10 -3 6 -8 10 -11 10 -2 0
-4 -4 -4 -10z"/>
<path d="M3876 927 c3 -10 9 -15 12 -12 3 3 0 11 -7 18 -10 9 -11 8 -5 -6z"/>
<path d="M6436 927 c3 -10 9 -15 12 -12 3 3 0 11 -7 18 -10 9 -11 8 -5 -6z"/>
<path d="M4076 913 c-6 -14 -5 -15 5 -6 7 7 10 15 7 18 -3 3 -9 -2 -12 -12z"/>
<path d="M7350 917 c0 -2 6 -10 14 -16 11 -9 16 -9 22 1 4 7 4 10 -1 6 -4 -4
-14 -3 -22 3 -7 6 -13 9 -13 6z"/>
<path d="M2030 905 c0 -7 30 -13 34 -7 3 4 -4 9 -15 9 -10 1 -19 0 -19 -2z"/>
<path d="M2154 902 c4 -3 14 -7 22 -8 9 -1 13 0 10 4 -4 3 -14 7 -22 8 -9 1
-13 0 -10 -4z"/>
<path d="M2216 902 c-3 -5 1 -9 9 -9 8 0 12 4 9 9 -3 4 -7 8 -9 8 -2 0 -6 -4
-9 -8z"/>
<path d="M2354 902 c4 -3 14 -7 22 -8 9 -1 13 0 10 4 -4 3 -14 7 -22 8 -9 1
-13 0 -10 -4z"/>
<path d="M2690 899 c0 -5 5 -7 10 -4 6 3 10 8 10 11 0 2 -4 4 -10 4 -5 0 -10
-5 -10 -11z"/>
<path d="M2735 900 c3 -5 8 -10 11 -10 2 0 4 5 4 10 0 6 -5 10 -11 10 -5 0 -7
-4 -4 -10z"/>
<path d="M3010 899 c0 -5 5 -7 10 -4 6 3 10 8 10 11 0 2 -4 4 -10 4 -5 0 -10
-5 -10 -11z"/>
<path d="M3810 899 c0 -5 5 -7 10 -4 6 3 10 8 10 11 0 2 -4 4 -10 4 -5 0 -10
-5 -10 -11z"/>
<path d="M4010 900 c0 -5 5 -10 11 -10 5 0 7 5 4 10 -3 6 -8 10 -11 10 -2 0
-4 -4 -4 -10z"/>
<path d="M4610 899 c0 -5 5 -7 10 -4 6 3 10 8 10 11 0 2 -4 4 -10 4 -5 0 -10
-5 -10 -11z"/>
<path d="M4655 900 c3 -5 8 -10 11 -10 2 0 4 5 4 10 0 6 -5 10 -11 10 -5 0 -7
-4 -4 -10z"/>
<path d="M4930 899 c0 -5 5 -7 10 -4 6 3 10 8 10 11 0 2 -4 4 -10 4 -5 0 -10
-5 -10 -11z"/>
<path d="M4975 899 c-3 -4 2 -6 10 -5 21 3 28 13 10 13 -9 0 -18 -4 -20 -8z"/>
<path d="M5250 899 c0 -5 5 -7 10 -4 6 3 10 8 10 11 0 2 -4 4 -10 4 -5 0 -10
-5 -10 -11z"/>
<path d="M5295 900 c3 -5 8 -10 11 -10 2 0 4 5 4 10 0 6 -5 10 -11 10 -5 0 -7
-4 -4 -10z"/>
<path d="M5570 899 c0 -5 5 -7 10 -4 6 3 10 8 10 11 0 2 -4 4 -10 4 -5 0 -10
-5 -10 -11z"/>
<path d="M6370 899 c0 -5 5 -7 10 -4 6 3 10 8 10 11 0 2 -4 4 -10 4 -5 0 -10
-5 -10 -11z"/>
<path d="M6570 900 c0 -5 5 -10 11 -10 5 0 7 5 4 10 -3 6 -8 10 -11 10 -2 0
-4 -4 -4 -10z"/>
<path d="M6695 900 c-3 -5 -1 -10 4 -10 6 0 11 5 11 10 0 6 -2 10 -4 10 -3 0
-8 -4 -11 -10z"/>
<path d="M7154 902 c4 -3 14 -7 22 -8 9 -1 13 0 10 4 -4 3 -14 7 -22 8 -9 1
-13 0 -10 -4z"/>
<path d="M7215 899 c-3 -4 2 -6 10 -5 21 3 28 13 10 13 -9 0 -18 -4 -20 -8z"/>
<path d="M7470 905 c0 -7 30 -13 34 -7 3 4 -4 9 -15 9 -10 1 -19 0 -19 -2z"/>
<path d="M7536 902 c-3 -5 1 -9 9 -9 8 0 12 4 9 9 -3 4 -7 8 -9 8 -2 0 -6 -4
-9 -8z"/>
<path d="M7595 900 c3 -5 8 -10 11 -10 2 0 4 5 4 10 0 6 -5 10 -11 10 -5 0 -7
-4 -4 -10z"/>
<path d="M2835 889 c-4 -6 -5 -12 -2 -15 2 -3 7 2 10 11 7 17 1 20 -8 4z"/>
<path d="M3150 896 c0 -2 8 -10 18 -17 15 -13 16 -12 3 4 -13 16 -21 21 -21
13z"/>
<path d="M4395 891 c-3 -5 -2 -12 3 -15 5 -3 9 1 9 9 0 17 -3 19 -12 6z"/>
<path d="M4755 889 c-4 -6 -5 -12 -2 -15 2 -3 7 2 10 11 7 17 1 20 -8 4z"/>
<path d="M5395 889 c-4 -6 -5 -12 -2 -15 2 -3 7 2 10 11 7 17 1 20 -8 4z"/>
<path d="M5710 896 c0 -2 8 -10 18 -17 15 -13 16 -12 3 4 -13 16 -21 21 -21
13z"/>
<path d="M6949 883 c-13 -16 -12 -17 4 -4 9 7 17 15 17 17 0 8 -8 3 -21 -13z"/>
<path d="M2530 880 c0 -5 5 -10 11 -10 5 0 7 5 4 10 -3 6 -8 10 -11 10 -2 0
-4 -4 -4 -10z"/>
<path d="M2590 886 c0 -2 7 -7 16 -10 8 -3 12 -2 9 4 -6 10 -25 14 -25 6z"/>
<path d="M2870 881 c0 -6 4 -13 10 -16 6 -3 7 1 4 9 -7 18 -14 21 -14 7z"/>
<path d="M2910 879 c0 -5 5 -7 10 -4 6 3 10 8 10 11 0 2 -4 4 -10 4 -5 0 -10
-5 -10 -11z"/>
<path d="M3315 880 c3 -5 8 -10 11 -10 2 0 4 5 4 10 0 6 -5 10 -11 10 -5 0 -7
-4 -4 -10z"/>
<path d="M3466 882 c-2 -4 4 -8 14 -8 10 0 16 4 14 8 -3 4 -9 8 -14 8 -5 0
-11 -4 -14 -8z"/>
<path d="M3590 881 c0 -6 4 -13 10 -16 6 -3 7 1 4 9 -7 18 -14 21 -14 7z"/>
<path d="M4265 880 c-3 -6 1 -7 9 -4 18 7 21 14 7 14 -6 0 -13 -4 -16 -10z"/>
<path d="M4510 886 c0 -2 7 -7 16 -10 8 -3 12 -2 9 4 -6 10 -25 14 -25 6z"/>
<path d="M4790 881 c0 -6 4 -13 10 -16 6 -3 7 1 4 9 -7 18 -14 21 -14 7z"/>
<path d="M4835 880 c3 -5 8 -10 11 -10 2 0 4 5 4 10 0 6 -5 10 -11 10 -5 0 -7
-4 -4 -10z"/>
<path d="M5150 886 c0 -2 7 -7 16 -10 8 -3 12 -2 9 4 -6 10 -25 14 -25 6z"/>
<path d="M5430 881 c0 -6 4 -13 10 -16 6 -3 7 1 4 9 -7 18 -14 21 -14 7z"/>
<path d="M5470 879 c0 -5 5 -7 10 -4 6 3 10 8 10 11 0 2 -4 4 -10 4 -5 0 -10
-5 -10 -11z"/>
<path d="M5875 880 c3 -5 8 -10 11 -10 2 0 4 5 4 10 0 6 -5 10 -11 10 -5 0 -7
-4 -4 -10z"/>
<path d="M6026 882 c-2 -4 4 -8 14 -8 10 0 16 4 14 8 -3 4 -9 8 -14 8 -5 0
-11 -4 -14 -8z"/>
<path d="M6150 881 c0 -6 4 -13 10 -16 6 -3 7 1 4 9 -7 18 -14 21 -14 7z"/>
<path d="M7055 880 c-3 -5 -1 -10 4 -10 6 0 11 5 11 10 0 6 -2 10 -4 10 -3 0
-8 -4 -11 -10z"/>
<path d="M2273 855 c0 -8 4 -12 9 -9 5 3 6 10 3 15 -9 13 -12 11 -12 -6z"/>
<path d="M2673 855 c0 -8 4 -12 9 -9 5 3 6 10 3 15 -9 13 -12 11 -12 -6z"/>
<path d="M2715 861 c-3 -5 -2 -12 3 -15 5 -3 9 1 9 9 0 17 -3 19 -12 6z"/>
<path d="M3076 855 c-9 -26 -7 -32 5 -12 6 10 9 21 6 23 -2 3 -7 -2 -11 -11z"/>
<path d="M3796 855 c-9 -26 -7 -32 5 -12 6 10 9 21 6 23 -2 3 -7 -2 -11 -11z"/>
<path d="M3873 855 c0 -8 4 -12 9 -9 5 3 6 10 3 15 -9 13 -12 11 -12 -6z"/>
<path d="M3915 861 c-3 -5 -2 -12 3 -15 5 -3 9 1 9 9 0 17 -3 19 -12 6z"/>
<path d="M4593 855 c0 -8 4 -12 9 -9 5 3 6 10 3 15 -9 13 -12 11 -12 -6z"/>
<path d="M4635 861 c-3 -5 -2 -12 3 -15 5 -3 9 1 9 9 0 17 -3 19 -12 6z"/>
<path d="M4995 860 c-3 -5 -1 -10 4 -10 6 0 11 5 11 10 0 6 -2 10 -4 10 -3 0
-8 -4 -11 -10z"/>
<path d="M5233 855 c0 -8 4 -12 9 -9 5 3 6 10 3 15 -9 13 -12 11 -12 -6z"/>
<path d="M5275 861 c-3 -5 -2 -12 3 -15 5 -3 9 1 9 9 0 17 -3 19 -12 6z"/>
<path d="M5636 855 c-9 -26 -7 -32 5 -12 6 10 9 21 6 23 -2 3 -7 -2 -11 -11z"/>
<path d="M6356 855 c-9 -26 -7 -32 5 -12 6 10 9 21 6 23 -2 3 -7 -2 -11 -11z"/>
<path d="M6670 865 c0 -5 5 -17 10 -25 5 -8 10 -10 10 -5 0 6 -5 17 -10 25 -5
8 -10 11 -10 5z"/>
<path d="M7270 861 c0 -6 4 -13 10 -16 6 -3 7 1 4 9 -7 18 -14 21 -14 7z"/>
<path d="M7393 855 c0 -8 4 -12 9 -9 5 3 6 10 3 15 -9 13 -12 11 -12 -6z"/>
<path d="M3290 846 c0 -2 7 -7 16 -10 8 -3 12 -2 9 4 -6 10 -25 14 -25 6z"/>
<path d="M5850 846 c0 -2 7 -7 16 -10 8 -3 12 -2 9 4 -6 10 -25 14 -25 6z"/>
<path d="M6765 840 c-3 -6 1 -7 9 -4 18 7 21 14 7 14 -6 0 -13 -4 -16 -10z"/>
<path d="M2870 796 c7 -7 13 -7 20 0 6 6 3 10 -10 10 -13 0 -16 -4 -10 -10z"/>
<path d="M4790 796 c7 -7 13 -7 20 0 6 6 3 10 -10 10 -13 0 -16 -4 -10 -10z"/>
<path d="M5430 796 c7 -7 13 -7 20 0 6 6 3 10 -10 10 -13 0 -16 -4 -10 -10z"/>
<path d="M7505 800 c-3 -6 1 -7 9 -4 18 7 21 14 7 14 -6 0 -13 -4 -16 -10z"/>
<path d="M2515 760 c3 -5 8 -10 11 -10 2 0 4 5 4 10 0 6 -5 10 -11 10 -5 0 -7
-4 -4 -10z"/>
<path d="M6595 760 c3 -5 8 -10 11 -10 2 0 4 5 4 10 0 6 -5 10 -11 10 -5 0 -7
-4 -4 -10z"/>
<path d="M6950 756 c7 -7 13 -7 20 0 6 6 3 10 -10 10 -13 0 -16 -4 -10 -10z"/>
<path d="M4235 720 c3 -5 8 -10 11 -10 2 0 4 5 4 10 0 6 -5 10 -11 10 -5 0 -7
-4 -4 -10z"/>
<path d="M1876 687 c3 -10 9 -15 12 -12 3 3 0 11 -7 18 -10 9 -11 8 -5 -6z"/>
<path d="M3115 641 c-3 -5 -2 -12 3 -15 5 -3 9 1 9 9 0 17 -3 19 -12 6z"/>
<path d="M5033 635 c0 -8 4 -12 9 -9 5 3 6 10 3 15 -9 13 -12 11 -12 -6z"/>
<path d="M5675 641 c-3 -5 -2 -12 3 -15 5 -3 9 1 9 9 0 17 -3 19 -12 6z"/>
</g>
</svg>
